<svg xmlns="http://www.w3.org/2000/svg" width="500" height="430.8384" viewBox="0 0 500 430.8384">
  <title>hurr-iconAsset 3</title>
  <path d="M463.5717,331.03A17.6119,17.6119,0,1,1,481.18,313.4221,17.612,17.612,0,0,1,463.5717,331.03ZM391.5387,49.1836l1.5352,11.9286L321.9852,75.6211l4.1948-2.7172a8.9027,8.9027,0,0,0,2.638-12.3106l-.6408-.9875,65.2571-24.1167-1.838,10.8187a9.8606,9.8606,0,0,0-.0576,2.8758ZM307.7862,180.319l.6926.245a11.0724,11.0724,0,0,0-11.9437,8.1735l-7.9422,30.099c-3.9144-10.22-8.4617-19.9579-13.6223-27.6845a23.8628,23.8628,0,0,0-19.8649-10.5591h-6.1546l73.553-41.3717L307.7862,180.319ZM274.6743,303.8936h-126.27V277.1678l9.0665-69.5464H246.644s28.03,46.5108,28.03,69.5464v26.7258Zm-.0641,90.8592A12.7448,12.7448,0,1,1,260.6267,380.77,12.7816,12.7816,0,0,1,274.61,394.7528Zm31.4036-2.602a12.7448,12.7448,0,1,1,13.9749,13.9756,12.7936,12.7936,0,0,1-13.9749-13.9756Zm-68.3289-22.5742H114.8736a6.7824,6.7824,0,1,1,0-13.5647H237.6849a6.7824,6.7824,0,0,1,0,13.5647ZM217.843,394.7528A12.7412,12.7412,0,1,1,203.8667,380.77a12.7749,12.7749,0,0,1,13.9763,13.9828Zm-56.76,0A12.7451,12.7451,0,1,1,147.1067,380.77a12.7816,12.7816,0,0,1,13.9763,13.9828Zm-58.2822-67.4777H35.0492a5.285,5.285,0,0,1-5.29-5.29v-9.6a5.29,5.29,0,0,1,5.29-5.29h67.7516a5.294,5.294,0,0,1,5.2911,5.29v9.6a5.2894,5.2894,0,0,1-5.2911,5.29Zm1.5222,67.4777A12.7451,12.7451,0,1,1,90.3467,380.77a12.7816,12.7816,0,0,1,13.9763,13.9828Zm-56.76,0A12.7452,12.7452,0,1,1,33.58,380.77a12.7823,12.7823,0,0,1,13.9836,13.9828ZM29.76,259.0478a5.29,5.29,0,0,1,5.29-5.29h67.7516a5.294,5.294,0,0,1,5.2911,5.29v9.6006a5.2894,5.2894,0,0,1-5.2911,5.29H35.0492a5.2849,5.2849,0,0,1-5.29-5.29v-9.6006ZM488.6541,418.329l10.5448-44.1251a29.2466,29.2466,0,0,0-3.1858-21.5363l-12.1016-20.7a27.6562,27.6562,0,0,0-8.541-42.7412,28.4261,28.4261,0,0,0-6.0832-2.2055L458.1364,16.9583c-.2948-7.2-3.8914-11.1213-8.6125-11.72l-40.6-5.1606a9.7532,9.7532,0,0,0-10.84,8.0437l-1.86,10.97L320.1472,47.2087l-1.6-2.4794a8.9067,8.9067,0,0,0-12.3179-2.638L234.55,88.4939a8.9071,8.9071,0,0,0-4.0219,8.3248L165.32,180.5929h-4.4255a23.9737,23.9737,0,0,0-23.6193,19.8642l-9.442,54.295-4-11.0349a25.6874,25.6874,0,0,0-24.1455-16.9235H31.7135a20.5565,20.5565,0,0,0-19.7287,14.74L0,282.0905v53.5527A19.117,19.117,0,0,0,19.1139,354.765h61.517l-59.989,17.0964c-4.5624,1.2974-9.2042,2.3281-13.8387,3.38C2.8318,376.15,0,378.5,0,381.26v27c0,3.5462,4.6626,6.422,10.4215,6.422H343.1539c5.7589,0,10.4222-2.8758,10.4222-6.422v-27c0-2.76-2.8333-5.11-6.8111-6.0184-4.6274-1.0523-9.2683-2.083-13.838-3.38L272.9445,354.765h13.8819a19.1238,19.1238,0,0,0,19.1218-19.1218V282.0905s-1.06-5.9246-3.136-14.9918a11.05,11.05,0,0,0,4.1955-6.1265l17.1477-64.9406a11.0634,11.0634,0,0,0-3.2658-11.0132l.4685.1657,20.3255-56.7527,38.6184-21.7238,19.8937,9.7807,3.9642,30.8559a9.6794,9.6794,0,0,0,.3027,1.4343l41.126,143.655a27.6479,27.6479,0,0,0,3.0784,45.1629l-2.8982,31.4541a.9586.9586,0,0,1-.5182.764l-29.5231,14.9486a.9256.9256,0,0,1-.8369.0144L370.32,363.8105a.95.95,0,0,0-1.29,1.2037c3.4164,8.7068,16.0074,40.7159,22.4294,54.98,5.8021,12.8512,59.4412,11.316,83.2775,9.9754a15.1955,15.1955,0,0,0,13.9172-11.64Z" style="fill: #c4912c"/>
</svg>
