<svg xmlns="http://www.w3.org/2000/svg" width="41.5184" height="47.9206" viewBox="0 0 41.5184 47.9206">
  <title>hurr-hAsset 1</title>
  <g>
    <path d="M20.7764,0,0,11.9806V35.94L20.7764,47.9206,41.5184,35.94V11.9806ZM40.0418,34.5339l-1.1371-.3691v.2624l-5.2634,3.0452c-4.1888,6.83-12.43,8.6515-12.43,8.6515l-.2871-1.3159-.1477.0888-5.27-3.0437C7.82,41.3462,2.41,35.4625,2.41,35.4625l.7827-.7055-.571-.33v-7.234C-.2675,20.4958,1.9607,13.385,1.9607,13.385l.6611.2182v-.11l6.45-3.7162c4.3841-5.5916,11.3916-7.1257,11.3916-7.1257l.1033.489.21-.1165L26.14,6.12c7.6456.53,13.0355,6.3923,13.0355,6.3923l-.77.6923.4988.2887v6.2562c3.5884,6.9631,1.1371,14.7845,1.1371,14.7845" style="fill: #eee"/>
    <path d="M37.49,14.03c-4.4643-4.612-12.4761-7.5752-19.4359-3.5636a12.3832,12.3832,0,0,0-1.04.7612h5.0075a12.5109,12.5109,0,0,1,5.4735,0h.6317l.105.1739a18.3067,18.3067,0,0,1,4.0887,1.5751,16.6368,16.6368,0,0,1,6.2577,6.15v-5.439l-.4315-.2495Z" style="fill: #eee"/>
    <path d="M24.65,36.693H19.9953a12.3532,12.3532,0,0,1-5.4717,0H13.4211l-.1756-.315a18.2449,18.2449,0,0,1-3.5669-1.4389,16.28,16.28,0,0,1-6.727-7.0633v6.3676l.4988.2823.6431-.5825c4.4726,4.6137,12.5006,7.5752,19.4507,3.5588a11.2158,11.2158,0,0,0,1.1058-.809" style="fill: #eee"/>
    <path d="M8.1708,20.2974l1.5618-2.6942c.8992-5.7063,6.9158-9.1879,6.9158-9.1879a16.5836,16.5836,0,0,1,8.7253-2.3577L20.7764,3.406l-.1378.0757.3,1.3864C14.7156,6.4316,8.1313,11.89,8.1313,19.9167c0,.14.04.2445.04.3807" style="fill: #eee"/>
    <path d="M31.8989,30.1547c-.7678,5.8328-6.9484,9.4014-6.9484,9.4014a16.5743,16.5743,0,0,1-8.6893,2.361l4.5152,2.6055.0738-.0444-.12-.5692a17.6032,17.6032,0,0,0,2.9566-1.0731l3.2749-1.8818a14.8763,14.8763,0,0,0,6.5662-12.0988,11.52,11.52,0,0,0-.1361-1.28Z" style="fill: #eee"/>
    <path d="M10.77,32.693c.1624.09.3019.1213.4544.2035L9.72,30.291a12.3981,12.3981,0,0,1-3.416-5.8918l-.2476-.4413.0919-.1608a17.7857,17.7857,0,0,1-.51-3.6885,16.1931,16.1931,0,0,1,3.0027-9.71L2.9516,13.68v.0228l1.1732.3856C2.3659,20.26,3.8016,28.6814,10.77,32.693" style="fill: #eee"/>
    <path d="M31.2475,15.2225a9.8536,9.8536,0,0,0-1.0927-.4741l2.75,4.7614a12.3147,12.3147,0,0,1,1.9017,3.2879l.671,1.16-.1724.3a18.1111,18.1111,0,0,1,.7057,4.4086,16.488,16.488,0,0,1-2.0838,8.2576l4.6481-2.6809v-.187l-.694-.2214c1.7523-6.1757.3135-14.5944-6.6334-18.6125" style="fill: #eee"/>
    <path d="M27.7593,11.8853H13.8082L6.804,23.9579,13.8082,36.04H27.7593l6.9648-12.0822ZM24.97,30.5568V22.8782L23.395,25.7265H16.5762v4.83h-4.84V17.36h4.84v4.8631h7.9213l.4726-.8958V17.36h4.8352V30.5568Z" style="fill: #eee"/>
  </g>
</svg>
