<svg xmlns="http://www.w3.org/2000/svg" width="183.0078" height="70.125" viewBox="0 0 183.0078 70.125">
  <title>heatAsset 10</title>
  <g>
    <path d="M14.9863,31.45V17.94H7.9668V31.45H2.0615V.4424H7.9668V13.51h7.02V.4424h5.9053V31.45Z" style="fill: #231f20"/>
    <path d="M31.5879,4.7842v8.7705h8.6348v4.3408H31.5879v9.2139H42.2842V31.45H25.6826V.4424H42.2842V4.7842Z" style="fill: #231f20"/>
    <path d="M58.6064,31.45l-1.2812-7.043H50.8076L49.5264,31.45H43.6211L50.3623.4424h7.5205L64.624,31.45ZM51.5879,20.1543h4.958L54.15,7.0869h-.167Z" style="fill: #231f20"/>
    <path d="M74.9307,4.8721V31.45H69.0254V4.8721H62.73V.4424H81.2256v4.43Z" style="fill: #231f20"/>
    <path d="M101.6719,7.84V24.0527c0,4.8731-3.6211,7.8409-9.5264,7.8409s-9.5264-2.9678-9.5264-7.8409V7.84c0-4.872,3.6211-7.84,9.5264-7.84S101.6719,2.9678,101.6719,7.84Zm-13.1475.045v16.124c0,2.3027,1.2813,3.543,3.6211,3.543s3.6211-1.24,3.6211-3.543V7.8848c0-2.3037-1.2812-3.544-3.6211-3.544S88.5244,5.5811,88.5244,7.8848Z" style="fill: #231f20"/>
    <path d="M119.2764,31.45l-7.7442-20.5537h-.1113V31.45h-5.57V.4424h6.5732l6.9639,18.4717h.1113V.4424H125.07V31.45Z" style="fill: #231f20"/>
    <path d="M17.8828,45.3184v.8867L12.2,46.6475v-.9746c0-2.126-1.0029-3.1006-3.0635-3.1006-1.7275,0-2.9531.7529-2.9531,2.5254v.664c0,1.7276,1.1143,3.1445,4.958,5.9356,5.2373,3.8535,7.02,6.3789,7.02,9.9668V63.17c0,4.5625-3.6211,6.9551-9.0244,6.9551C3.6768,70.125,0,67.6,0,63.0371V61l5.6826-.4434v2.126c0,2.082,1.2256,3.1006,3.3428,3.1006,1.7822,0,3.2305-.7529,3.2305-2.9678v-.9746c0-1.9482-1.1143-3.3662-4.958-6.1572C2.0615,51.83.2783,49.3057.2783,45.9385v-.753c0-4.5625,3.3428-6.9541,8.8028-6.9541S17.8828,40.7559,17.8828,45.3184Z" style="fill: #231f20"/>
    <path d="M33.3135,69.6816l-1.2813-7.0429H25.5146l-1.2812,7.0429H18.3281l6.7412-31.0078h7.52l6.7413,31.0078ZM26.2949,58.3857h4.958L28.8574,45.3184H28.69Z" style="fill: #231f20"/>
    <path d="M55.4316,69.6816,47.6875,49.1279h-.1113V69.6816h-5.57V38.6738h6.5732L55.543,57.1455h.1113V38.6738h5.5713V69.6816Z" style="fill: #231f20"/>
    <path d="M66.0166,69.6816V38.6738h5.9053V69.6816Z" style="fill: #231f20"/>
    <path d="M86.2949,43.1035V69.6816H80.39V43.1035H74.0938v-4.43H92.59v4.43Z" style="fill: #231f20"/>
    <path d="M105.6826,69.6816,104.4,62.6387H97.8828l-1.2812,7.0429H90.6963l6.7412-31.0078h7.52l6.7412,31.0078ZM98.6631,58.3857h4.958l-2.3955-13.0673h-.167Z" style="fill: #231f20"/>
    <path d="M122.0059,43.1035V69.6816h-5.9053V43.1035h-6.2959v-4.43h18.4961v4.43Z" style="fill: #231f20"/>
    <path d="M130.4736,69.6816V38.6738h5.9053V69.6816Z" style="fill: #231f20"/>
    <path d="M159.6094,46.0713V62.2842c0,4.873-3.6211,7.8408-9.5264,7.8408s-9.5264-2.9678-9.5264-7.8408V46.0713c0-4.8721,3.6211-7.84,9.5264-7.84S159.6094,41.1992,159.6094,46.0713Zm-13.1475.0449V62.24c0,2.3028,1.2813,3.543,3.6211,3.543s3.6211-1.24,3.6211-3.543V46.1162c0-2.3037-1.2812-3.5439-3.6211-3.5439S146.4619,43.8125,146.4619,46.1162Z" style="fill: #231f20"/>
    <path d="M177.2139,69.6816,169.47,49.1279h-.1113V69.6816h-5.57V38.6738h6.5732l6.9639,18.4717h.1113V38.6738h5.5713V69.6816Z" style="fill: #231f20"/>
  </g>
</svg>
