<svg xmlns="http://www.w3.org/2000/svg" width="159.3153" height="47.9206" viewBox="0 0 159.3153 47.9206">
  <title>hsms2Asset 8</title>
  <g>
    <polygon points="62.528 17.131 57.165 17.131 57.165 14.018 54.068 14.018 54.068 22.467 57.165 22.467 57.165 19.369 61.513 19.369 62.528 17.553 62.528 22.467 65.641 22.467 65.641 14.018 62.528 14.018 62.528 17.131" style="fill: #fff"/>
    <path d="M74.9184,19.4977c0,.4539-.3791.6782-1.1218.6782H71.0139c-.7689,0-1.1479-.2243-1.1479-.6782v-5.49H66.7787v6.03c0,1.6183.9773,2.4195,2.9429,2.4195H75.09c1.9437,0,2.9051-.8012,2.9051-2.4195v-6.03H74.9184Z" style="fill: #fff"/>
    <path d="M90.7223,18.0714V16.4a5.4709,5.4709,0,0,0-.1072-1.0632,1.4214,1.4214,0,0,0-.4325-.7366,1.9328,1.9328,0,0,0-.8653-.4545,6.499,6.499,0,0,0-1.4794-.1384H79.159v8.4492h3.0977V20.1759h1.7681l3.311,2.2806H91.267l-3.0124-2.2806c1.6342-.0963,2.4677-.7854,2.4677-2.1045M87.63,17.1958c0,.4752-.4.7317-1.148.7317H83.24l-.9828,2.11V16.2185h4.2248c.7478,0,1.148.24,1.148.7153Z" style="fill: #fff"/>
    <path d="M103.46,18.0714V16.4a3.5808,3.5808,0,0,0-.1072-1.0632,1.67,1.67,0,0,0-1.26-1.1911,6.6251,6.6251,0,0,0-1.5062-.1384H91.8915v8.4492h3.1191V20.1759H96.8l3.3163,2.2806h3.9311l-3.0446-2.2806c1.6292-.0963,2.4573-.7854,2.4573-2.1045m-3.0873-.8756c0,.4752-.3789.7317-1.1431.7317H95.9884l-.9778,2.11V16.2185H99.23c.7642,0,1.1431.24,1.1431.7153Z" style="fill: #fff"/>
    <rect x="104.6618" y="14.0073" width="3.1136" height="8.4328" style="fill: #fff"/>
    <path d="M108.908,15.8017V20.603c0,1.2284.6624,1.8535,2.0028,1.8535h9.2662V20.1759h-8.1713V16.2185h8.1713V14.0073h-9.2662c-1.34,0-2.0028.5929-2.0028,1.7944" style="fill: #fff"/>
    <path d="M125.8971,14.0073l-4.8817,8.4492h7.835l.8439-1.96,1.2338,1.96h3.1672l-4.8866-8.4492Zm-.3576,6.1686,2.0454-3.2311,1.9546,3.2311Z" style="fill: #fff"/>
    <path d="M143.8428,19.4977c0,.3418-.1925.5606-.6678.6514-.3577-.07-.5983-.1975-.6732-.4753V16.4c0-1.6079-.9719-2.3927-2.9479-2.3927h-1.6773c-1.9437,0-2.9211.7848-2.9211,2.3927v6.0565h3.0979V16.9338c0-.3522.23-.5606.6567-.641.39.07.6032.2243.6727.4753V20.037c0,1.6183.9614,2.4195,2.9587,2.4195h1.6665c1.9229,0,2.9271-.8012,2.9271-2.4195v-6.03h-3.0923Z" style="fill: #fff"/>
    <path d="M148.083,15.8017V20.603c0,1.2284.6679,1.8535,2.03,1.8535h9.2026V20.1759h-8.1292v-.8548h6.5749l.9773-2.2374h-6.7614l-.7908,1.7944v-2.66h8.1292V14.0073h-9.2026c-1.3618,0-2.03.5929-2.03,1.7944" style="fill: #fff"/>
    <g>
      <path d="M20.7764,0,0,11.9806V35.94L20.7764,47.9206,41.5184,35.94V11.9806ZM40.0418,34.5339l-1.1371-.3691v.2625l-5.2634,3.0451c-4.1888,6.83-12.43,8.6515-12.43,8.6515l-.2871-1.3158-.1477.0887-5.27-3.0437C7.82,41.3462,2.41,35.4625,2.41,35.4625l.7827-.7054-.571-.33v-7.234C-.2675,20.4959,1.9607,13.385,1.9607,13.385l.6611.2183v-.11l6.45-3.7162c4.3841-5.5915,11.3916-7.1256,11.3916-7.1256l.1033.4889.21-.1164L26.14,6.12c7.6456.53,13.0355,6.3923,13.0355,6.3923l-.77.6924.4988.2886v6.2562c3.5884,6.9632,1.1371,14.7845,1.1371,14.7845" style="fill: #fff"/>
      <path d="M37.49,14.03c-4.4643-4.6121-12.4761-7.5753-19.4359-3.5637a12.4055,12.4055,0,0,0-1.04.7612h5.0075a12.5109,12.5109,0,0,1,5.4735,0h.6317l.105.1739a18.3067,18.3067,0,0,1,4.0887,1.5751,16.6382,16.6382,0,0,1,6.2577,6.15v-5.439l-.4315-.2495Z" style="fill: #fff"/>
      <path d="M24.65,36.693H19.9953a12.3532,12.3532,0,0,1-5.4717,0H13.4211l-.1756-.315a18.2488,18.2488,0,0,1-3.5669-1.4388,16.2808,16.2808,0,0,1-6.727-7.0633v6.3676l.4988.2822.6431-.5825c4.4726,4.6137,12.5006,7.5752,19.4507,3.5588a11.2158,11.2158,0,0,0,1.1058-.809" style="fill: #fff"/>
      <path d="M8.1708,20.2975l1.5618-2.6942c.8992-5.7063,6.9158-9.188,6.9158-9.188a16.5836,16.5836,0,0,1,8.7253-2.3577L20.7764,3.4061l-.1378.0756.3,1.3864C14.7156,6.4316,8.1313,11.89,8.1313,19.9167c0,.14.04.2445.04.3808" style="fill: #fff"/>
      <path d="M31.8989,30.1548c-.7678,5.8328-6.9484,9.4013-6.9484,9.4013a16.5734,16.5734,0,0,1-8.6893,2.361l4.5152,2.6055.0738-.0443-.12-.5692A17.612,17.612,0,0,0,23.687,42.836l3.2749-1.8819a14.876,14.876,0,0,0,6.5662-12.0987,11.52,11.52,0,0,0-.1361-1.28Z" style="fill: #fff"/>
      <path d="M10.77,32.6931c.1624.09.3019.1213.4544.2034L9.72,30.291a12.3978,12.3978,0,0,1-3.416-5.8917l-.2476-.4414.0919-.1608a17.7857,17.7857,0,0,1-.51-3.6885,16.1934,16.1934,0,0,1,3.0027-9.71L2.9516,13.68v.0228l1.1732.3856C2.3659,20.26,3.8016,28.6815,10.77,32.6931" style="fill: #fff"/>
      <path d="M31.2475,15.2226a9.8358,9.8358,0,0,0-1.0927-.4742l2.75,4.7614a12.3137,12.3137,0,0,1,1.9017,3.288l.671,1.16-.1724.3a18.1117,18.1117,0,0,1,.7057,4.4086,16.4884,16.4884,0,0,1-2.0838,8.2577l4.6481-2.6809v-.187l-.694-.2215c1.7523-6.1757.3135-14.5943-6.6334-18.6124" style="fill: #fff"/>
      <path d="M27.7593,11.8854H13.8082L6.804,23.9579,13.8082,36.04H27.7593l6.9648-12.0822ZM24.97,30.5568V22.8783L23.395,25.7265H16.5762v4.83h-4.84V17.3605h4.84v4.863h7.9213l.4726-.8958V17.3605h4.8352V30.5568Z" style="fill: #fff"/>
    </g>
    <g>
      <path d="M65.3145,28.8523V31.284H58.0382a1.2185,1.2185,0,0,0-.5606.0762.2627.2627,0,0,0-.1045.2285v.0381a.1977.1977,0,0,0,.085.1611,1.3461,1.3461,0,0,0,.58.0664h4.2744a5.0535,5.0535,0,0,1,1.416.1709,2.4771,2.4771,0,0,1,.9306.4756,1.7027,1.7027,0,0,1,.504.74,2.9,2.9,0,0,1,.1513.95v.6651a2.2316,2.2316,0,0,1-.74,1.872,3.6863,3.6863,0,0,1-2.28.5791H54.0675v-2.47h7.4287a.9655.9655,0,0,0,.4082-.0576.2172.2172,0,0,0,.1045-.209v-.0186a.2691.2691,0,0,0-.0664-.1611c-.045-.0576-.1934-.0859-.4463-.0859H57.0694a3.3127,3.3127,0,0,1-2.2422-.6651,2.2745,2.2745,0,0,1-.76-1.8047v-.5322a3.3692,3.3692,0,0,1,.1416-1.0068,1.7888,1.7888,0,0,1,.4853-.7793,2.2423,2.2423,0,0,1,.9209-.4942,5.3022,5.3022,0,0,1,1.4727-.1709Z" style="fill: #fff"/>
      <path d="M78.4249,31.74v3.1163a2.4822,2.4822,0,0,1-.38,1.4062,1.6462,1.6462,0,0,1-.627.57,3.163,3.163,0,0,1-.8554.36h.0195a1.3474,1.3474,0,0,1-.2285.0381c-.1133.0126-.2315.0253-.3516.038s-.2812.0254-.4844.0381H73.7315q-.3984,0-.7695-.0283a3.0407,3.0407,0,0,1-.6934-.1328,2.4367,2.4367,0,0,1-.6172-.3047,2.3229,2.3229,0,0,1-.56-.56,2.2077,2.2077,0,0,1-.3994-1.1778V31.7215q-.0762-.2665-.5127-.3613-.5127.0951-.5127.4755v5.4717H66.3223V31.3035q0-2.4507,3.0391-2.4512h1.6533q3.04,0,3.04,2.4512v3.1348c.0634.1777.24.2978.5322.3613a.4947.4947,0,0,0,.4746-.3613V31.3035q0-2.4507,3.04-2.4512h1.6338q3.0411,0,3.04,2.4512v6.0039H79.4512V31.8357q0-.3808-.5322-.4755C78.627,31.4236,78.463,31.5506,78.4249,31.74Z" style="fill: #fff"/>
      <path d="M95.03,28.8523V31.284H87.754a1.2191,1.2191,0,0,0-.5606.0762.2627.2627,0,0,0-.1045.2285v.0381a.1979.1979,0,0,0,.085.1611,1.3461,1.3461,0,0,0,.58.0664h4.2744a5.0535,5.0535,0,0,1,1.416.1709,2.4784,2.4784,0,0,1,.9307.4756,1.7033,1.7033,0,0,1,.5039.74,2.8974,2.8974,0,0,1,.1513.95v.6651a2.2316,2.2316,0,0,1-.74,1.872,3.6861,3.6861,0,0,1-2.28.5791H83.7833v-2.47H91.212A.9655.9655,0,0,0,91.62,34.78a.2172.2172,0,0,0,.1045-.209v-.0186a.2691.2691,0,0,0-.0664-.1611c-.045-.0576-.1934-.0859-.4463-.0859H86.7852A3.3127,3.3127,0,0,1,84.543,33.64a2.2745,2.2745,0,0,1-.76-1.8047v-.5322a3.3692,3.3692,0,0,1,.1416-1.0068,1.7888,1.7888,0,0,1,.4853-.7793,2.243,2.243,0,0,1,.9209-.4942,5.3022,5.3022,0,0,1,1.4727-.1709Z" style="fill: #fff"/>
    </g>
  </g>
</svg>
