<svg xmlns="http://www.w3.org/2000/svg" width="159.2981" height="47.9206" viewBox="0 0 159.2981 47.9206">
  <title>hlogoAsset 1</title>
  <g>
    <polygon points="62.51 17.131 57.148 17.131 57.148 14.018 54.05 14.018 54.05 22.467 57.148 22.467 57.148 19.369 61.495 19.369 62.51 17.553 62.51 22.467 65.624 22.467 65.624 14.018 62.51 14.018 62.51 17.131" style="fill: #222222"/>
    <path d="M74.9012,19.4977c0,.4539-.3791.6781-1.1218.6781H70.9967c-.7689,0-1.1479-.2242-1.1479-.6781v-5.49H66.7615v6.03c0,1.6183.9773,2.4195,2.9429,2.4195h5.3679c1.9437,0,2.9051-.8012,2.9051-2.4195v-6.03H74.9012Z" style="fill: #222222"/>
    <path d="M90.7051,18.0713V16.4a5.4709,5.4709,0,0,0-.1072-1.0632,1.4221,1.4221,0,0,0-.4325-.7367,1.9338,1.9338,0,0,0-.8653-.4545,6.5,6.5,0,0,0-1.4794-.1383H79.1418v8.4491H82.24V20.1758h1.7681l3.311,2.2806H91.25l-3.0124-2.2806c1.6342-.0962,2.4677-.7853,2.4677-2.1045m-3.0928-.8756c0,.4753-.4.7318-1.148.7318h-3.242L82.24,20.0369V16.2184h4.2248c.7478,0,1.148.24,1.148.7154Z" style="fill: #222222"/>
    <path d="M103.4431,18.0713V16.4a3.5808,3.5808,0,0,0-.1072-1.0632,1.67,1.67,0,0,0-1.26-1.1912,6.6257,6.6257,0,0,0-1.5062-.1383H91.8743v8.4491h3.1191V20.1758h1.79l3.3163,2.2806H104.03l-3.0446-2.2806c1.6292-.0962,2.4573-.7853,2.4573-2.1045m-3.0873-.8756c0,.4753-.3789.7318-1.1431.7318H95.9712l-.9778,2.1094V16.2184h4.2193c.7642,0,1.1431.24,1.1431.7154Z" style="fill: #222222"/>
    <rect x="104.6446" y="14.0073" width="3.1136" height="8.4327" style="fill: #222222"/>
    <path d="M108.8908,15.8017V20.603c0,1.2283.6624,1.8534,2.0028,1.8534H120.16V20.1758h-8.1713V16.2184H120.16V14.0073h-9.2662c-1.34,0-2.0028.5928-2.0028,1.7944" style="fill: #222222"/>
    <path d="M125.88,14.0073l-4.8817,8.4491h7.835l.8439-1.96,1.2338,1.96h3.1672l-4.8866-8.4491Zm-.3576,6.1685,2.0454-3.2311,1.9546,3.2311Z" style="fill: #222222"/>
    <path d="M143.8256,19.4977c0,.3418-.1925.5606-.6678.6513-.3577-.0694-.5983-.1974-.6732-.4752V16.4c0-1.6079-.9719-2.3927-2.9479-2.3927h-1.6773c-1.9437,0-2.9211.7848-2.9211,2.3927v6.0564h3.0979V16.9338c0-.3522.23-.5606.6567-.641.39.07.6032.2242.6727.4753v3.2688c0,1.6183.9614,2.4195,2.9587,2.4195h1.6665c1.9229,0,2.9271-.8012,2.9271-2.4195v-6.03h-3.0923Z" style="fill: #222222"/>
    <path d="M148.0658,15.8017V20.603c0,1.2283.6679,1.8534,2.03,1.8534h9.2026V20.1758h-8.1292V19.321h6.5749l.9773-2.2374H151.96l-.7908,1.7944v-2.66h8.1292V14.0073h-9.2026c-1.3618,0-2.03.5928-2.03,1.7944" style="fill: #222222"/>
    <polygon points="62.537 31.867 57.159 31.867 57.159 28.753 54.05 28.753 54.05 37.202 57.159 37.202 57.159 34.105 61.528 34.105 62.537 32.289 62.537 37.202 65.581 37.202 65.581 28.753 62.537 28.753 62.537 31.867" style="fill: #222222"/>
    <path d="M74.9067,31.8241h-4.15c-.4,0-.62-.0426-.7373-.1548a.8281.8281,0,0,1-.1438-.5233V28.7428H66.778v3.3378a2.7114,2.7114,0,0,0,.1438.9719,1.7453,1.7453,0,0,0,.513.5983,1.5366,1.5366,0,0,0,.7477.3314,5.3821,5.3821,0,0,0,.956.0744h4.9188l.8494-1.976v2.4945c-.0481.2187-.315.3363-.8012.3363H66.7512v2.2642h9.0847a3.6022,3.6022,0,0,0,1.0681-.1384,1.7234,1.7234,0,0,0,.6678-.4063,1.4765,1.4765,0,0,0,.3576-.6032,7.4921,7.4921,0,0,0,.0963-.8281V28.7428h-3.119Z" style="fill: #222222"/>
    <path d="M87.3723,28.7428H79.1474V37.192h8.2249c1.9973,0,3.0015-.8012,3.0015-2.4195V31.1356c0-1.6079-1.0042-2.3928-3.0015-2.3928m-.123,5.49c0,.454-.3418.6782-1.0949.6782H82.2719V30.954h3.8825c.7531,0,1.0949.24,1.0949.7153Z" style="fill: #222222"/>
    <path d="M103.0691,32.8069V31.1356a4.5223,4.5223,0,0,0-.0908-1.0632,1.3579,1.3579,0,0,0-.4539-.7367,1.6426,1.6426,0,0,0-.86-.4545,6.05,6.05,0,0,0-1.4636-.1384h-8.69V37.192h3.1032V34.9114H96.393l3.2848,2.2806h3.9683l-3.0282-2.2806c1.6341-.0962,2.4512-.7853,2.4512-2.1045m-3.0709-.8756c0,.4753-.4058.7318-1.1643.7318H95.6027l-.9882,2.1094V30.954h4.2194c.7585,0,1.1643.24,1.1643.7153Z" style="fill: #222222"/>
    <path d="M113.4625,28.7428H107.24c-1.97,0-2.9746.7849-2.9746,2.3928v3.6369c0,1.6183,1.0041,2.4195,2.9746,2.4195h6.2221c2.03,0,3.0283-.8012,3.0283-2.4195V31.1356c0-1.6079-.9987-2.3928-3.0283-2.3928m-.0962,5.49c0,.454-.3577.6782-1.1162.6782h-3.77c-.7586,0-1.0949-.2242-1.0949-.6782V31.6693c0-.4752.3363-.7153,1.0949-.7153h3.77c.7585,0,1.1162.24,1.1162.7153Z" style="fill: #222222"/>
    <polygon points="126.478 28.743 123.119 34.233 119.743 28.743 116.587 28.743 121.474 37.176 124.764 37.176 129.597 28.743 126.478 28.743" style="fill: #222222"/>
    <path d="M131.814,28.7428l-4.8658,8.4492h7.8136l.8652-1.96,1.1912,1.96h3.1726l-4.86-8.4492Zm-.3314,6.1686,2.0241-3.2311,1.9284,3.2311Z" style="fill: #222222"/>
    <path d="M151.4737,30.954V28.7428H142.25c-1.3356,0-1.9869.6033-1.9869,1.7945v4.8012c0,1.218.6513,1.8639,1.9869,1.8639h9.2236V34.9218H143.34V30.954Z" style="fill: #222222"/>
    <g>
      <path d="M20.7764,0,0,11.9806V35.94L20.7764,47.9206,41.5184,35.94V11.9806ZM40.0418,34.5339l-1.1371-.3691v.2624l-5.2634,3.0452c-4.1888,6.83-12.43,8.6515-12.43,8.6515l-.2871-1.3159-.1477.0888-5.27-3.0437C7.82,41.3462,2.41,35.4625,2.41,35.4625l.7827-.7055-.571-.33v-7.234C-.2675,20.4958,1.9607,13.385,1.9607,13.385l.6611.2182v-.11l6.45-3.7162c4.3841-5.5916,11.3916-7.1257,11.3916-7.1257l.1033.489.21-.1165L26.14,6.12c7.6456.53,13.0355,6.3923,13.0355,6.3923l-.77.6923.4988.2887v6.2562c3.5884,6.9631,1.1371,14.7845,1.1371,14.7845" style="fill: #222222"/>
      <path d="M37.49,14.03c-4.4643-4.612-12.4761-7.5752-19.4359-3.5636a12.3832,12.3832,0,0,0-1.04.7612h5.0075a12.5109,12.5109,0,0,1,5.4735,0h.6317l.105.1739a18.3067,18.3067,0,0,1,4.0887,1.5751,16.6368,16.6368,0,0,1,6.2577,6.15v-5.439l-.4315-.2495Z" style="fill: #222222"/>
      <path d="M24.65,36.693H19.9953a12.3532,12.3532,0,0,1-5.4717,0H13.4211l-.1756-.315a18.2449,18.2449,0,0,1-3.5669-1.4389,16.28,16.28,0,0,1-6.727-7.0633v6.3676l.4988.2823.6431-.5825c4.4726,4.6137,12.5006,7.5752,19.4507,3.5588a11.2158,11.2158,0,0,0,1.1058-.809" style="fill: #222222"/>
      <path d="M8.1708,20.2974l1.5618-2.6942c.8992-5.7063,6.9158-9.1879,6.9158-9.1879a16.5836,16.5836,0,0,1,8.7253-2.3577L20.7764,3.406l-.1378.0757.3,1.3864C14.7156,6.4316,8.1313,11.89,8.1313,19.9167c0,.14.04.2445.04.3807" style="fill: #222222"/>
      <path d="M31.8989,30.1547c-.7678,5.8328-6.9484,9.4014-6.9484,9.4014a16.5743,16.5743,0,0,1-8.6893,2.361l4.5152,2.6055.0738-.0444-.12-.5692a17.6032,17.6032,0,0,0,2.9566-1.0731l3.2749-1.8818a14.8763,14.8763,0,0,0,6.5662-12.0988,11.52,11.52,0,0,0-.1361-1.28Z" style="fill: #222222"/>
      <path d="M10.77,32.693c.1624.09.3019.1213.4544.2035L9.72,30.291a12.3981,12.3981,0,0,1-3.416-5.8918l-.2476-.4413.0919-.1608a17.7857,17.7857,0,0,1-.51-3.6885,16.1931,16.1931,0,0,1,3.0027-9.71L2.9516,13.68v.0228l1.1732.3856C2.3659,20.26,3.8016,28.6814,10.77,32.693" style="fill: #222222"/>
      <path d="M31.2475,15.2225a9.8536,9.8536,0,0,0-1.0927-.4741l2.75,4.7614a12.3147,12.3147,0,0,1,1.9017,3.2879l.671,1.16-.1724.3a18.1111,18.1111,0,0,1,.7057,4.4086,16.488,16.488,0,0,1-2.0838,8.2576l4.6481-2.6809v-.187l-.694-.2214c1.7523-6.1757.3135-14.5944-6.6334-18.6125" style="fill: #222222"/>
      <path d="M27.7593,11.8853H13.8082L6.804,23.9579,13.8082,36.04H27.7593l6.9648-12.0822ZM24.97,30.5568V22.8782L23.395,25.7265H16.5762v4.83h-4.84V17.36h4.84v4.8631h7.9213l.4726-.8958V17.36h4.8352V30.5568Z" style="fill: #222222"/>
    </g>
  </g>
</svg>
