<svg xmlns="http://www.w3.org/2000/svg" xmlns:xlink="http://www.w3.org/1999/xlink" width="934.1314" height="297.4961" viewBox="0 0 934.1314 297.4961">
  <defs>
    <pattern id="a" data-name="New Pattern Swatch 1" width="14.667" height="14.667" patternUnits="userSpaceOnUse" viewBox="0 0 14.667 14.667">
      <rect width="14.667" height="14.667" style="fill: none"/>
      <rect width="14.667" height="14.667" style="fill: #231f20"/>
    </pattern>
  </defs>
  <title>hurr-logoAsset 1</title>
  <g>
    <polygon points="128.82 0 0 74.374 0 223.122 128.82 297.496 257.639 223.122 257.639 74.374 128.82 0" style="fill: #ac782d"/>
    <polygon points="2 221.968 2 75.528 128.82 2.31 255.639 75.528 255.639 221.968 128.82 295.186 2 221.968" style="fill: #c4912c"/>
    <polygon points="18 212.729 18 84.767 128.82 20.784 239.639 84.767 239.639 212.729 128.82 276.712 18 212.729" style="fill: #bebdbc"/>
    <polygon points="20 211.575 20 85.921 128.82 23.094 237.639 85.921 237.639 211.575 128.82 274.402 20 211.575" style="fill: url(#a)"/>
    <path d="M199.39,81.6416s-67.377-38.9-101.3575,19.9492c0,0-15.7988,26.8575-3.27,50.4512-3.7812-1.8633-8.9062-5.1016-11.6719-9.8926-4.73-8.1933-13.3808-51.334,29.1231-75.875,42.5039-24.5371,91.4824-6.4258,118.7637,21.77L241.28,78.7412S178.8272,10.3076,103.6221,53.7256c0,0-67.3789,38.9-33.4024,97.752,0,0,18.834,33.2382,51.0411,27.3867l-.0606.082s-8.9785,8.2441-18.4394,8.2441-51.1485-14.0761-51.1485-63.1543c0-49.08,40.1758-82.4414,78.2363-91.9707l-2.9062-13.5722S36.4483,38.3623,36.4483,125.2c0,0,0,77.8027,67.955,77.8027,0,0,32.7325.2637,46.3516-24.1386a23.7125,23.7125,0,0,1-2.7715,10.5566c-4.73,8.1934-37.7637,37.2559-80.2676,12.7168S16.4072,126.126,27.1846,88.3994L13.9776,84.13s-28.0391,88.3047,47.164,131.7227c0,0,67.3789,38.9023,101.3574-19.9493,0,0,14.752-25.082,4.4336-48.06a23.9032,23.9032,0,0,1,7.9688,7.8144c4.73,8.1934,13.3828,51.334-29.1211,75.875-42.5039,24.5371-91.4824,6.4258-118.7656-21.7695l-10.3008,9.3027S79.167,287.499,154.37,244.0811c0,0,67.3789-38.9,33.4024-97.752,0,0-15.4844-27.3262-42.3809-28.0625A23.4064,23.4064,0,0,1,155.63,115.53c9.4609,0,51.1465,14.0762,51.1484,63.1562-.0019,49.0782-40.1757,82.4395-78.2363,91.9707l2.9063,13.5723S221.94,264.36,221.94,177.5225c0,0,.002-77.8028-67.955-77.8047,0,0-29.6543-.2383-44.2578,20.7812,0-3.875.5878-8.56,2.82-12.4257,4.73-8.1934,37.7636-37.2559,80.27-12.7168,42.5019,24.541,51.3066,76.0136,40.5293,113.7382l13.207,4.27S274.5928,125.0615,199.39,81.6416Z" style="fill: #ac782d"/>
    <polygon points="83.89 226.568 38.96 148.748 83.89 70.928 173.75 70.928 218.68 148.748 173.75 226.568 83.89 226.568" style="fill: #bebdbc"/>
    <polygon points="86.199 222.568 43.579 148.748 86.199 74.928 171.44 74.928 214.061 148.748 171.44 222.568 86.199 222.568" style="fill: #c4912c"/>
    <polygon points="154.469 108.416 154.469 132.635 151.548 138.145 103.169 138.145 103.169 108.416 73.623 108.416 73.623 189.082 103.169 189.082 103.169 159.535 144.862 159.535 154.469 142.133 154.469 189.082 184.017 189.082 184.017 108.416 154.469 108.416" style="fill: #231f20"/>
    <rect x="177.6815" y="114.083" width="0.0023" height="0.253"/>
    <polygon points="333.847 95.807 300.589 95.807 300.589 76.497 281.377 76.497 281.377 128.899 300.589 128.899 300.589 109.687 327.551 109.687 333.847 98.426 333.847 128.899 353.157 128.899 353.157 76.497 333.847 76.497 333.847 95.807" style="fill: #231f20"/>
    <path d="M410.6958,110.4844c0,2.8151-2.3512,4.2056-6.9575,4.2056H386.48c-4.7688,0-7.1194-1.3905-7.1194-4.2056V76.4325H360.2128v37.396c0,10.0368,6.0613,15.0059,18.252,15.0059h33.2921c12.055,0,18.0177-4.9691,18.0177-15.0059V76.4325H410.6958Z" style="fill: #231f20"/>
    <path d="M508.7127,101.6377V91.2722a33.9236,33.9236,0,0,0-.6649-6.594,8.8194,8.8194,0,0,0-2.6824-4.5691,11.9928,11.9928,0,0,0-5.3666-2.8188,40.3077,40.3077,0,0,0-9.1754-.8578H436.9963v52.4019h19.2121V114.69h10.9659l20.5351,14.1444H512.091L493.4078,114.69c10.1355-.5966,15.3049-4.87,15.3049-13.0523m-19.1818-5.43c0,2.9478-2.482,4.5387-7.12,4.5387H462.3038l-6.0954,13.0826V90.1459h26.2025c4.638,0,7.12,1.4891,7.12,4.437Z" style="fill: #231f20"/>
    <path d="M587.7147,101.6377V91.2722a22.2058,22.2058,0,0,0-.6649-6.594,10.3589,10.3589,0,0,0-7.8152-7.3879,41.09,41.09,0,0,0-9.3416-.8578H515.9642v52.4019H535.309V114.69h11.0993l20.5679,14.1444h24.381L572.4743,114.69c10.1044-.5966,15.24-4.87,15.24-13.0523m-19.1477-5.43c0,2.9478-2.35,4.5387-7.09,4.5387h-20.104l-6.0644,13.0826V90.1459h26.1684c4.74,0,7.09,1.4891,7.09,4.437Z" style="fill: #231f20"/>
    <rect x="595.1665" y="76.4325" width="19.3108" height="52.3002" style="fill: #231f20"/>
    <path d="M621.5017,87.5615V117.34c0,7.618,4.1083,11.4949,12.4215,11.4949h57.47V114.69H640.7139V90.1459h50.6789V76.4325h-57.47c-8.3132,0-12.4215,3.6766-12.4215,11.129" style="fill: #231f20"/>
    <path d="M726.8693,76.4325l-30.2766,52.4019h48.5932l5.2339-12.1566,7.6521,12.1566h19.6432l-30.307-52.4019ZM724.6515,114.69l12.6857-20.04L749.46,114.69Z" style="fill: #231f20"/>
    <path d="M838.17,110.4844c0,2.12-1.1939,3.4769-4.1417,4.0394-2.2185-.43-3.7107-1.2243-4.1752-2.9472V91.2722c0-9.9723-6.0278-14.84-18.2831-14.84H801.167c-12.0549,0-18.1168,4.8674-18.1168,14.84v37.5622h19.2134V94.5829c0-2.1844,1.4246-3.4769,4.0729-3.9756,2.4181.4311,3.741,1.3906,4.1721,2.9479v20.2733c0,10.0368,5.9627,15.0059,18.35,15.0059h10.3357c11.926,0,18.1541-4.9691,18.1541-15.0059V76.4325H838.17Z" style="fill: #231f20"/>
    <path d="M864.4679,87.5615V117.34c0,7.618,4.1423,11.4949,12.5883,11.4949h57.0752V114.69H883.7135v-5.3015h40.778l6.0613-13.8766H888.6181l-4.9046,11.129V90.1459h50.4179V76.4325H877.0562c-8.446,0-12.5883,3.6766-12.5883,11.129" style="fill: #231f20"/>
    <polygon points="334.014 187.198 300.657 187.198 300.657 167.888 281.377 167.888 281.377 220.29 300.657 220.29 300.657 201.078 327.752 201.078 334.014 189.817 334.014 220.29 352.894 220.29 352.894 167.888 334.014 167.888 334.014 187.198" style="fill: #231f20"/>
    <path d="M410.73,186.9336h-25.738c-2.4833,0-3.8434-.2642-4.5728-.96a5.1362,5.1362,0,0,1-.8918-3.2455V167.8231H360.3151v20.7013a16.8145,16.8145,0,0,0,.8919,6.0278,10.8242,10.8242,0,0,0,3.1816,3.7107,9.53,9.53,0,0,0,4.6373,2.0554,33.3824,33.3824,0,0,0,5.9292.4614h30.5067l5.2681-12.2553v15.4711c-.2983,1.3564-1.9537,2.0857-4.9691,2.0857H360.1489V220.124h56.3439a22.34,22.34,0,0,0,6.6245-.8584,10.6882,10.6882,0,0,0,4.1417-2.52,9.1573,9.1573,0,0,0,2.2179-3.7411,46.4707,46.4707,0,0,0,.5972-5.1359V167.8231H410.73Z" style="fill: #231f20"/>
    <path d="M488.0424,167.8231H437.031v52.4026h51.0114c12.3874,0,18.6155-4.9691,18.6155-15.0059V182.6635c0-9.9724-6.2281-14.84-18.6155-14.84M487.28,201.875c0,2.8157-2.12,4.2062-6.7907,4.2062H456.4094v-24.544h24.0795c4.6708,0,6.7907,1.4891,6.7907,4.4363Z" style="fill: #231f20"/>
    <path d="M585.3951,193.029V182.6635a28.0512,28.0512,0,0,0-.5631-6.5941,8.4222,8.4222,0,0,0-2.8152-4.5691,10.1877,10.1877,0,0,0-5.3319-2.8188,37.5249,37.5249,0,0,0-9.0773-.8584H513.7128v52.4026h19.2463V206.0812h11.03l20.3725,14.1445h24.6117l-18.7811-14.1445c10.1348-.5966,15.2025-4.87,15.2025-13.0522m-19.0459-5.4306c0,2.9479-2.5168,4.5387-7.2211,4.5387h-20.04L532.9591,205.22V181.5372h26.169c4.7043,0,7.2211,1.4891,7.2211,4.4363Z" style="fill: #231f20"/>
    <path d="M649.8557,167.8231h-38.59c-12.2212,0-18.4487,4.868-18.4487,14.84V205.22c0,10.0368,6.2275,15.0059,18.4487,15.0059h38.59c12.5877,0,18.7817-4.9691,18.7817-15.0059V182.6635c0-9.9724-6.194-14.84-18.7817-14.84m-.5966,34.0519c0,2.8157-2.2185,4.2062-6.9228,4.2062H618.952c-4.7049,0-6.7906-1.3905-6.7906-4.2062V185.9735c0-2.9472,2.0857-4.4363,6.7906-4.4363h23.3843c4.7043,0,6.9228,1.4891,6.9228,4.4363Z" style="fill: #231f20"/>
    <polygon points="730.581 167.823 709.744 201.875 688.809 167.823 669.234 167.823 699.545 220.124 719.947 220.124 749.926 167.823 730.581 167.823" style="fill: #231f20"/>
    <path d="M763.673,167.8231l-30.178,52.4026h48.4605l5.366-12.1567,7.3879,12.1567h19.6767l-30.1439-52.4026Zm-2.0553,38.2581,12.5536-20.04,11.96,20.04Z" style="fill: #231f20"/>
    <path d="M885.6039,181.5372V167.8231H828.3985c-8.2835,0-12.3229,3.7418-12.3229,11.13V208.73c0,7.5542,4.0394,11.56,12.3229,11.56h57.2054V206.1457H835.155V181.5372Z" style="fill: #231f20"/>
  </g>
</svg>
