<svg xmlns="http://www.w3.org/2000/svg" width="215.2225" height="59.6805" viewBox="0 0 215.2225 59.6805">
  <title>hurrAsset 1</title>
  <g>
    <g>
      <path d="M77.6667,7.1733V18.6114H72.4451V7.1733H67.4362V3.205H82.6755V7.1733Z" style="fill: #fff"/>
      <path d="M95.4768,18.6114V12.8677H90.0707v5.7437H84.8491V3.205h5.2216V8.8256h5.4061V3.205h5.2216V18.6114Z" style="fill: #fff"/>
      <path d="M103.7728,18.6114V3.205h12.934V6.9764h-7.8451V8.9979h6.2015v3.7714h-6.2015V14.84h7.8451v3.7714Z" style="fill: #fff"/>
      <path d="M78.9648,37.3584V31.6148H73.5586v5.7436H68.3371V21.9521h5.2215v5.6206h5.4062V21.9521h5.2216V37.3584Z" style="fill: #fff"/>
      <path d="M94.8141,37.7285c-4.4,0-7.7124-1.7746-7.7124-6.4336V21.9521h5.2216v8.7513c0,2.0707.7682,3.0313,2.5708,3.0313,1.7227,0,2.4381-.7638,2.4381-2.9083V21.9521h5.1952V30.9C102.5274,35.6578,99.3466,37.7285,94.8141,37.7285Z" style="fill: #fff"/>
      <path d="M110.6643,37.3584h-5.2216V21.9521h7.5006c4.6116,0,7.0506,1.9723,7.0506,5.0537a4.5584,4.5584,0,0,1-3.2335,4.4367l4.108,5.9159h-5.7779l-2.969-4.6837-1.4572.124Zm1.6963-8.0358c1.59-.1477,2.2263-.7146,2.2263-1.9723,0-1.1338-.7155-1.7007-2.5981-1.7007H110.558v3.6976Z" style="fill: #fff"/>
      <path d="M127.9981,37.3584h-5.2216V21.9521h7.5006c4.6116,0,7.0506,1.9723,7.0506,5.0537a4.5584,4.5584,0,0,1-3.2335,4.4367l4.108,5.9159h-5.7779l-2.969-4.6837-1.4572.124Zm1.6963-8.0358c1.59-.1477,2.2263-.7146,2.2263-1.9723,0-1.1338-.7155-1.7007-2.5981-1.7007h-1.4308v3.6976Z" style="fill: #fff"/>
      <path d="M140.1367,37.3584V21.9521h5.2216V37.3584Z" style="fill: #fff"/>
      <path d="M161.1548,26.685a8.7834,8.7834,0,0,0-3.9761-1.0354,3.7393,3.7393,0,0,0-4.0817,3.9692c0,2.4891,1.4045,4.0421,4.0817,4.0421a8.5845,8.5845,0,0,0,4.2143-1.1338l1.14,4.166a14.95,14.95,0,0,1-5.6189,1.0354c-5.54,0-9.065-2.6869-9.065-8.0113,0-5.0045,3.4725-8.1351,9.2768-8.1351a14.9176,14.9176,0,0,1,5.5925,1.0845Z" style="fill: #fff"/>
      <path d="M181.2976,37.3584H176.13l-1.0335-2.8837h-5.6189l-.9809,2.8837h-5.1424l5.6988-15.4063h6.6524Zm-8.9587-11.93-1.8553,5.3982h3.6052Z" style="fill: #fff"/>
      <path d="M194.3643,21.9521h4.85V37.507h-5.5389l-5.9642-8.8743v8.7257h-4.85V21.9521H188.48l5.8843,8.7513Z" style="fill: #fff"/>
      <path d="M202.2885,37.3584V21.9521h12.934v3.7714h-7.8451V27.745H213.58v3.7713h-6.2024V33.587h7.8451v3.7714Z" style="fill: #fff"/>
      <path d="M76.9512,56.4755c-5.54,0-9.2241-2.8344-9.2241-8.0112,0-5.1275,3.5253-8.1352,9.2769-8.1352a15.29,15.29,0,0,1,6.6,1.3316l-1.6172,3.9929a10.1266,10.1266,0,0,0-4.7707-1.2569c-2.6772,0-4.2935,1.6269-4.2935,3.9692,0,2.7114,1.2718,4.2152,4.188,4.2152a7.12,7.12,0,0,0,2.1463-.2962v-1.553h-3.79V47.01h8.4287v8.06A16.4334,16.4334,0,0,1,76.9512,56.4755Z" style="fill: #fff"/>
      <path d="M91.8461,56.1055H86.6245V40.6992h7.5014c4.6117,0,7.05,1.9722,7.05,5.0537A4.5586,4.5586,0,0,1,97.9421,50.19l4.1081,5.9159h-5.778l-2.968-4.6837-1.4581.1239ZM93.5423,48.07c1.59-.1477,2.2263-.7146,2.2263-1.9723,0-1.1338-.7154-1.7007-2.5972-1.7007H91.74v3.6976Z" style="fill: #fff"/>
      <path d="M111.777,56.4755c-4.9561,0-8.826-2.6622-8.826-8.0358,0-5.0291,3.95-8.1106,8.906-8.1106s8.826,2.6376,8.826,8.0113C120.683,53.37,116.7332,56.4755,111.777,56.4755Zm0-12.3249c-2.4117,0-3.578,1.7253-3.578,4.19,0,2.5391,1.2463,4.3145,3.658,4.3145,2.3853,0,3.578-1.7508,3.578-4.2152C115.435,45.9005,114.1887,44.1506,111.777,44.1506Z" style="fill: #fff"/>
      <path d="M130.7016,56.4755c-4.4,0-7.7133-1.7745-7.7133-6.4336V40.6992H128.21V49.45c0,2.0707.7691,3.0314,2.5708,3.0314,1.7227,0,2.439-.7638,2.439-2.9083V40.6992h5.1943v8.9481C138.414,54.4048,135.2341,56.4755,130.7016,56.4755Z" style="fill: #fff"/>
      <path d="M147.8763,51.9641h-1.3254v4.1414h-5.2215V40.6992h6.8915c4.6916,0,7.3678,2.2183,7.3678,5.5212C155.5887,49.918,152.9388,51.9641,147.8763,51.9641Zm-.0527-7.5674h-1.4317v4.0184l1.3253-.0246c1.8554-.0246,2.7036-.7155,2.7036-2.0707C150.4208,45.062,149.52,44.3967,147.8236,44.3967Z" style="fill: #fff"/>
    </g>
    <g>
      <path d="M28.6608,10.4834,25.7849,23.249H36.3083l2.876-12.7656H49.5475L39.7029,1.9816A8.1487,8.1487,0,0,0,31.7767.4261L10.1359,7.7126a8.1485,8.1485,0,0,0-5.3712,6.0328L.1774,35.3843a8.1482,8.1482,0,0,0,2.6454,7.857l2.1585,1.8641,7.8612-34.622Z" style="fill: #fff"/>
      <path d="M56.444,16.4392,54.1082,14.422,50.2573,31.3807a45.0255,45.0255,0,0,1-7.3836,10.01c-5.22,5.3434-9.9426,7.3834-12.5607,8.1581l2.8576-12.684H22.6472l-2.876,12.7656h-9.55L19.564,57.699A8.1485,8.1485,0,0,0,27.49,59.2544l21.6408-7.2865a8.1487,8.1487,0,0,0,5.3713-6.0327L59.09,24.2963A8.1485,8.1485,0,0,0,56.444,16.4392ZM35.6764,49.6308a36.5081,36.5081,0,0,0,8.7384-6.7338,48.0937,48.0937,0,0,0,4.416-5.2348L46.113,49.6308Z" style="fill: #fff"/>
    </g>
  </g>
</svg>
