<svg xmlns="http://www.w3.org/2000/svg" width="105.2478" height="84.0653" viewBox="0 0 105.2478 84.0653">
  <title>hsmsAsset 4</title>
  <g>
    <g>
      <path d="M52.1683,0,31.3919,11.9806V35.94L52.1683,47.9206,72.91,35.94V11.9806ZM71.4337,34.5339l-1.1371-.3691v.2624l-5.2634,3.0452c-4.1888,6.83-12.43,8.6515-12.43,8.6515L52.316,44.808l-.1477.0888-5.27-3.0437c-7.6867-.5069-13.0963-6.3906-13.0963-6.3906l.7827-.7055-.571-.33v-7.234c-2.8893-6.6974-.6611-13.8082-.6611-13.8082l.6611.2182v-.11l6.45-3.7162C44.8475,4.1854,51.855,2.6513,51.855,2.6513l.1033.489.21-.1165L57.5319,6.12c7.6456.53,13.0355,6.3923,13.0355,6.3923l-.77.6923.4988.2887v6.2562c3.5884,6.9631,1.1371,14.7845,1.1371,14.7845" style="fill: #fff"/>
      <path d="M68.8823,14.03c-4.4643-4.612-12.4761-7.5752-19.4359-3.5636a12.3832,12.3832,0,0,0-1.04.7612h5.0075a12.5109,12.5109,0,0,1,5.4735,0h.6317l.105.1739a18.3067,18.3067,0,0,1,4.0887,1.5751,16.6368,16.6368,0,0,1,6.2577,6.15v-5.439l-.4315-.2495Z" style="fill: #fff"/>
      <path d="M56.0419,36.693H51.3872a12.3532,12.3532,0,0,1-5.4717,0H44.813l-.1756-.315a18.2449,18.2449,0,0,1-3.5669-1.4389,16.28,16.28,0,0,1-6.727-7.0633v6.3676l.4988.2823.6431-.5825c4.4726,4.6137,12.5006,7.5752,19.4507,3.5588a11.2158,11.2158,0,0,0,1.1058-.809" style="fill: #fff"/>
      <path d="M39.5627,20.2974l1.5618-2.6942c.8992-5.7063,6.9158-9.1879,6.9158-9.1879a16.5836,16.5836,0,0,1,8.7253-2.3577L52.1683,3.406l-.1378.0757.3,1.3864C46.1075,6.4316,39.5232,11.89,39.5232,19.9167c0,.14.0395.2445.0395.3807" style="fill: #fff"/>
      <path d="M63.2908,30.1547c-.7678,5.8328-6.9484,9.4014-6.9484,9.4014a16.5743,16.5743,0,0,1-8.6893,2.361l4.5152,2.6055.0738-.0444-.12-.5692a17.6032,17.6032,0,0,0,2.9566-1.0731l3.2749-1.8818A14.8763,14.8763,0,0,0,64.92,28.8553a11.52,11.52,0,0,0-.1361-1.28Z" style="fill: #fff"/>
      <path d="M42.1615,32.693c.1624.09.3019.1213.4544.2035L41.1114,30.291a12.3981,12.3981,0,0,1-3.416-5.8918l-.2476-.4413.0919-.1608a17.7857,17.7857,0,0,1-.51-3.6885,16.1931,16.1931,0,0,1,3.0027-9.71L34.3435,13.68v.0228l1.1732.3856c-1.7589,6.1708-.3232,14.5926,6.6448,18.6042" style="fill: #fff"/>
      <path d="M62.6394,15.2225a9.8536,9.8536,0,0,0-1.0927-.4741l2.75,4.7614a12.3147,12.3147,0,0,1,1.9017,3.2879l.671,1.16-.1724.3a18.1111,18.1111,0,0,1,.7057,4.4086,16.488,16.488,0,0,1-2.0838,8.2576l4.6481-2.6809v-.187l-.694-.2214c1.7523-6.1757.3135-14.5944-6.6334-18.6125" style="fill: #fff"/>
      <path d="M59.1512,11.8853H45.2L38.1959,23.9579,45.2,36.04H59.1512L66.116,23.9579ZM56.362,30.5568V22.8782l-1.5751,2.8483H47.9681v4.83h-4.84V17.36h4.84v4.8631h7.9213l.4726-.8958V17.36h4.8352V30.5568Z" style="fill: #fff"/>
    </g>
    <g>
      <polygon points="8.46 63.889 3.098 63.889 3.098 60.776 0 60.776 0 69.225 3.098 69.225 3.098 66.127 7.445 66.127 8.46 64.311 8.46 69.225 11.574 69.225 11.574 60.776 8.46 60.776 8.46 63.889" style="fill: #fff"/>
      <path d="M20.8509,66.2556c0,.4539-.3791.6782-1.1218.6782H16.9464c-.7689,0-1.1479-.2243-1.1479-.6782v-5.49H12.7112v6.03c0,1.6183.9773,2.4195,2.9429,2.4195H21.022c1.9437,0,2.9051-.8012,2.9051-2.4195v-6.03H20.8509Z" style="fill: #fff"/>
      <path d="M36.6548,64.8293V63.1579a5.4709,5.4709,0,0,0-.1072-1.0632,1.4214,1.4214,0,0,0-.4325-.7366,1.9328,1.9328,0,0,0-.8653-.4545,6.499,6.499,0,0,0-1.4794-.1384H25.0915v8.4492h3.0977V66.9338h1.7681l3.311,2.2806H37.2l-3.0124-2.2806c1.6342-.0963,2.4677-.7854,2.4677-2.1045m-3.0928-.8756c0,.4752-.4.7317-1.148.7317H29.172l-.9828,2.1095V62.9764H32.414c.7478,0,1.148.24,1.148.7153Z" style="fill: #fff"/>
      <path d="M49.3928,64.8293V63.1579a3.5808,3.5808,0,0,0-.1072-1.0632,1.67,1.67,0,0,0-1.26-1.1911,6.6251,6.6251,0,0,0-1.5062-.1384H37.824v8.4492h3.1191V66.9338h1.79l3.3163,2.2806H49.98l-3.0446-2.2806c1.6292-.0963,2.4573-.7854,2.4573-2.1045m-3.0873-.8756c0,.4752-.3789.7317-1.1431.7317H41.9209l-.9778,2.1095V62.9764h4.2193c.7642,0,1.1431.24,1.1431.7153Z" style="fill: #fff"/>
      <rect x="50.5943" y="60.7652" width="3.1136" height="8.4328" style="fill: #fff"/>
      <path d="M54.8405,62.56v4.8013c0,1.2284.6624,1.8535,2.0028,1.8535H66.11V66.9338H57.9382V62.9764H66.11V60.7652H56.8433c-1.34,0-2.0028.5929-2.0028,1.7944" style="fill: #fff"/>
      <path d="M71.83,60.7652l-4.8817,8.4492h7.835l.8439-1.96,1.2338,1.96h3.1672l-4.8866-8.4492Zm-.3576,6.1686,2.0454-3.2311,1.9546,3.2311Z" style="fill: #fff"/>
      <path d="M89.7753,66.2556c0,.3418-.1925.5606-.6678.6514-.3577-.0695-.5983-.1975-.6732-.4753V63.1579c0-1.6079-.9719-2.3927-2.9479-2.3927H83.8091c-1.9437,0-2.9211.7848-2.9211,2.3927v6.0565h3.0979V63.6917c0-.3522.23-.5606.6567-.641.39.0695.6032.2243.6727.4753v3.2689c0,1.6183.9614,2.4195,2.9587,2.4195h1.6665c1.9229,0,2.9271-.8012,2.9271-2.4195v-6.03H89.7753Z" style="fill: #fff"/>
      <path d="M94.0155,62.56v4.8013c0,1.2284.6679,1.8535,2.03,1.8535h9.2026V66.9338H97.1186V66.079h6.5749l.9773-2.2374H97.9094l-.7908,1.7944v-2.66h8.1292V60.7652H96.0452c-1.3618,0-2.03.5929-2.03,1.7944" style="fill: #fff"/>
    </g>
    <g>
      <path d="M43.0607,75.61v2.4317H35.7844a1.2185,1.2185,0,0,0-.5606.0762.2627.2627,0,0,0-.1045.2285v.0381a.1977.1977,0,0,0,.085.1611,1.3461,1.3461,0,0,0,.58.0664h4.2744a5.0535,5.0535,0,0,1,1.416.1709,2.4771,2.4771,0,0,1,.9306.4756,1.7027,1.7027,0,0,1,.504.74,2.9,2.9,0,0,1,.1513.95v.6651a2.2316,2.2316,0,0,1-.74,1.872,3.6863,3.6863,0,0,1-2.28.5791H31.8137v-2.47h7.4287a.9655.9655,0,0,0,.4082-.0576.2172.2172,0,0,0,.1045-.209V81.31a.2691.2691,0,0,0-.0664-.1611c-.045-.0576-.1934-.0859-.4463-.0859H34.8156a3.3127,3.3127,0,0,1-2.2422-.6651,2.2745,2.2745,0,0,1-.76-1.8047v-.5322a3.3692,3.3692,0,0,1,.1416-1.0068,1.7888,1.7888,0,0,1,.4853-.7793,2.2423,2.2423,0,0,1,.9209-.4942,5.3022,5.3022,0,0,1,1.4727-.1709Z" style="fill: #fff"/>
      <path d="M56.1711,78.4979v3.1163a2.4822,2.4822,0,0,1-.38,1.4062,1.6462,1.6462,0,0,1-.627.57,3.163,3.163,0,0,1-.8554.36h.02a1.3474,1.3474,0,0,1-.2285.0381c-.1133.0126-.2315.0253-.3516.038s-.2812.0254-.4844.0381H51.4777q-.3984,0-.77-.0283a3.0407,3.0407,0,0,1-.6934-.1328,2.4367,2.4367,0,0,1-.6172-.3047,2.3229,2.3229,0,0,1-.56-.5605,2.2077,2.2077,0,0,1-.3994-1.1778V78.4794q-.0762-.2665-.5127-.3613-.5127.0951-.5127.4755v5.4717H44.0685V78.0614q0-2.4507,3.0391-2.4512h1.6533q3.04,0,3.04,2.4512v3.1348c.0634.1777.24.2978.5322.3613a.4947.4947,0,0,0,.4746-.3613V78.0614q0-2.4507,3.04-2.4512h1.6338q3.0411,0,3.04,2.4512v6.0039H57.1974V78.5936q0-.3808-.5322-.4755C56.3732,78.1815,56.2092,78.3085,56.1711,78.4979Z" style="fill: #fff"/>
      <path d="M72.7765,75.61v2.4317H65.5a1.2191,1.2191,0,0,0-.5606.0762.2627.2627,0,0,0-.1045.2285v.0381a.1979.1979,0,0,0,.085.1611,1.3461,1.3461,0,0,0,.58.0664h4.2744a5.0535,5.0535,0,0,1,1.416.1709,2.4784,2.4784,0,0,1,.9307.4756,1.7033,1.7033,0,0,1,.5039.74,2.8974,2.8974,0,0,1,.1513.95v.6651a2.2316,2.2316,0,0,1-.74,1.872,3.6861,3.6861,0,0,1-2.28.5791H61.53v-2.47h7.4287a.9655.9655,0,0,0,.4082-.0576.2172.2172,0,0,0,.1045-.209V81.31a.2691.2691,0,0,0-.0664-.1611c-.045-.0576-.1934-.0859-.4463-.0859H64.5314a3.3127,3.3127,0,0,1-2.2422-.6651,2.2745,2.2745,0,0,1-.76-1.8047v-.5322a3.3692,3.3692,0,0,1,.1416-1.0068,1.7888,1.7888,0,0,1,.4853-.7793,2.243,2.243,0,0,1,.9209-.4942A5.3022,5.3022,0,0,1,64.55,75.61Z" style="fill: #fff"/>
    </g>
  </g>
</svg>
