<svg xmlns="http://www.w3.org/2000/svg" width="105.2478" height="85.123" viewBox="0 0 105.2478 85.123">
  <title>hlogoAsset 2</title>
  <g>
    <g>
      <polygon points="8.46 65.052 3.098 65.052 3.098 61.938 0 61.938 0 70.387 3.098 70.387 3.098 67.29 7.445 67.29 8.46 65.474 8.46 70.387 11.574 70.387 11.574 61.938 8.46 61.938 8.46 65.052" style="fill: #fff"/>
      <path d="M20.8509,67.4183c0,.4539-.3791.6781-1.1218.6781H16.9464c-.7689,0-1.1479-.2242-1.1479-.6781v-5.49H12.7112v6.03c0,1.6183.9773,2.4195,2.9429,2.4195H21.022c1.9437,0,2.9051-.8012,2.9051-2.4195v-6.03H20.8509Z" style="fill: #fff"/>
      <path d="M36.6548,65.9919V64.3206a5.4709,5.4709,0,0,0-.1072-1.0632,1.4221,1.4221,0,0,0-.4325-.7367,1.9338,1.9338,0,0,0-.8653-.4545,6.5,6.5,0,0,0-1.4794-.1383H25.0915V70.377h3.0977V68.0964h1.7681l3.311,2.2806H37.2l-3.0124-2.2806c1.6342-.0962,2.4677-.7853,2.4677-2.1045m-3.0928-.8756c0,.4753-.4.7318-1.148.7318H29.172l-.9828,2.1094V64.139H32.414c.7478,0,1.148.24,1.148.7154Z" style="fill: #fff"/>
      <path d="M49.3928,65.9919V64.3206a3.5808,3.5808,0,0,0-.1072-1.0632,1.67,1.67,0,0,0-1.26-1.1912,6.6257,6.6257,0,0,0-1.5062-.1383H37.824V70.377h3.1191V68.0964h1.79L46.049,70.377H49.98l-3.0446-2.2806c1.6292-.0962,2.4573-.7853,2.4573-2.1045m-3.0873-.8756c0,.4753-.3789.7318-1.1431.7318H41.9209l-.9778,2.1094V64.139h4.2193c.7642,0,1.1431.24,1.1431.7154Z" style="fill: #fff"/>
      <rect x="50.5943" y="61.9279" width="3.1136" height="8.4327" style="fill: #fff"/>
      <path d="M54.8405,63.7223v4.8013c0,1.2283.6624,1.8534,2.0028,1.8534H66.11V68.0964H57.9382V64.139H66.11V61.9279H56.8433c-1.34,0-2.0028.5928-2.0028,1.7944" style="fill: #fff"/>
      <path d="M71.83,61.9279,66.9479,70.377h7.835l.8439-1.96,1.2338,1.96h3.1672l-4.8866-8.4491Zm-.3576,6.1685,2.0454-3.2311,1.9546,3.2311Z" style="fill: #fff"/>
      <path d="M89.7753,67.4183c0,.3418-.1925.5606-.6678.6513-.3577-.0694-.5983-.1974-.6732-.4752V64.3206c0-1.6079-.9719-2.3927-2.9479-2.3927H83.8091c-1.9437,0-2.9211.7848-2.9211,2.3927V70.377h3.0979V64.8544c0-.3522.23-.5606.6567-.641.39.07.6032.2242.6727.4753v3.2688c0,1.6183.9614,2.4195,2.9587,2.4195h1.6665c1.9229,0,2.9271-.8012,2.9271-2.4195v-6.03H89.7753Z" style="fill: #fff"/>
      <path d="M94.0155,63.7223v4.8013c0,1.2283.6679,1.8534,2.03,1.8534h9.2026V68.0964H97.1186v-.8548h6.5749l.9773-2.2374H97.9094l-.7908,1.7944v-2.66h8.1292V61.9279H96.0452c-1.3618,0-2.03.5928-2.03,1.7944" style="fill: #fff"/>
      <polygon points="8.487 79.787 3.109 79.787 3.109 76.674 0 76.674 0 85.123 3.109 85.123 3.109 82.025 7.477 82.025 8.487 80.21 8.487 85.123 11.531 85.123 11.531 76.674 8.487 76.674 8.487 79.787" style="fill: #fff"/>
      <path d="M20.8564,79.7447h-4.15c-.4,0-.62-.0426-.7373-.1548a.8281.8281,0,0,1-.1438-.5233V76.6634H12.7277v3.3378a2.7114,2.7114,0,0,0,.1438.9719,1.7453,1.7453,0,0,0,.513.5983,1.5366,1.5366,0,0,0,.7477.3314,5.3821,5.3821,0,0,0,.956.0744H20.007l.8494-1.976v2.4945c-.0481.2187-.315.3363-.8012.3363H12.7009v2.2642h9.0847a3.6022,3.6022,0,0,0,1.0681-.1384,1.7234,1.7234,0,0,0,.6678-.4063,1.4765,1.4765,0,0,0,.3576-.6032,7.4921,7.4921,0,0,0,.0963-.8281V76.6634h-3.119Z" style="fill: #fff"/>
      <path d="M33.322,76.6634H25.0971v8.4492H33.322c1.9973,0,3.0015-.8012,3.0015-2.4195V79.0562c0-1.6079-1.0042-2.3928-3.0015-2.3928m-.123,5.49c0,.454-.3418.6782-1.0949.6782H28.2216V78.8746h3.8825c.7531,0,1.0949.24,1.0949.7153Z" style="fill: #fff"/>
      <path d="M49.0188,80.7275V79.0562a4.5223,4.5223,0,0,0-.0908-1.0632,1.3579,1.3579,0,0,0-.4539-.7367,1.6426,1.6426,0,0,0-.86-.4545,6.05,6.05,0,0,0-1.4636-.1384h-8.69v8.4492h3.1032V82.832h1.7785l3.2848,2.2806h3.9683L46.5676,82.832c1.6341-.0962,2.4512-.7853,2.4512-2.1045m-3.0709-.8756c0,.4753-.4058.7318-1.1643.7318H41.5524l-.9882,2.1094V78.8746h4.2194c.7585,0,1.1643.24,1.1643.7153Z" style="fill: #fff"/>
      <path d="M59.4122,76.6634H53.19c-1.9705,0-2.9746.7849-2.9746,2.3928v3.6369c0,1.6183,1.0041,2.4195,2.9746,2.4195h6.2221c2.03,0,3.0283-.8012,3.0283-2.4195V79.0562c0-1.6079-.9987-2.3928-3.0283-2.3928m-.0962,5.49c0,.454-.3577.6782-1.1162.6782h-3.77c-.7586,0-1.0949-.2242-1.0949-.6782V79.59c0-.4752.3363-.7153,1.0949-.7153H58.2c.7585,0,1.1162.24,1.1162.7153Z" style="fill: #fff"/>
      <polygon points="72.428 76.663 69.068 82.154 65.693 76.663 62.537 76.663 67.424 85.096 70.713 85.096 75.547 76.663 72.428 76.663" style="fill: #fff"/>
      <path d="M77.7637,76.6634l-4.8658,8.4492h7.8136l.8652-1.96,1.1912,1.96h3.1726l-4.86-8.4492Zm-.3314,6.1686,2.0241-3.2311,1.9284,3.2311Z" style="fill: #fff"/>
      <path d="M97.4234,78.8746V76.6634H88.2c-1.3356,0-1.9869.6033-1.9869,1.7945v4.8012c0,1.218.6513,1.8639,1.9869,1.8639h9.2236V82.8424H89.2892V78.8746Z" style="fill: #fff"/>
    </g>
    <g>
      <path d="M52.1683,0,31.3919,11.9806V35.94L52.1683,47.9206,72.91,35.94V11.9806ZM71.4337,34.5339l-1.1371-.3691v.2624l-5.2634,3.0452c-4.1888,6.83-12.43,8.6515-12.43,8.6515L52.316,44.808l-.1477.0888-5.27-3.0437c-7.6867-.5069-13.0963-6.3906-13.0963-6.3906l.7827-.7055-.571-.33v-7.234c-2.8893-6.6974-.6611-13.8082-.6611-13.8082l.6611.2182v-.11l6.45-3.7162C44.8475,4.1854,51.855,2.6513,51.855,2.6513l.1033.489.21-.1165L57.5319,6.12c7.6456.53,13.0355,6.3923,13.0355,6.3923l-.77.6923.4988.2887v6.2562c3.5884,6.9631,1.1371,14.7845,1.1371,14.7845" style="fill: #fff"/>
      <path d="M68.8823,14.03c-4.4643-4.612-12.4761-7.5752-19.4359-3.5636a12.3832,12.3832,0,0,0-1.04.7612h5.0075a12.5109,12.5109,0,0,1,5.4735,0h.6317l.105.1739a18.3067,18.3067,0,0,1,4.0887,1.5751,16.6368,16.6368,0,0,1,6.2577,6.15v-5.439l-.4315-.2495Z" style="fill: #fff"/>
      <path d="M56.0419,36.693H51.3872a12.3532,12.3532,0,0,1-5.4717,0H44.813l-.1756-.315a18.2449,18.2449,0,0,1-3.5669-1.4389,16.28,16.28,0,0,1-6.727-7.0633v6.3676l.4988.2823.6431-.5825c4.4726,4.6137,12.5006,7.5752,19.4507,3.5588a11.2158,11.2158,0,0,0,1.1058-.809" style="fill: #fff"/>
      <path d="M39.5627,20.2974l1.5618-2.6942c.8992-5.7063,6.9158-9.1879,6.9158-9.1879a16.5836,16.5836,0,0,1,8.7253-2.3577L52.1683,3.406l-.1378.0757.3,1.3864C46.1075,6.4316,39.5232,11.89,39.5232,19.9167c0,.14.0395.2445.0395.3807" style="fill: #fff"/>
      <path d="M63.2908,30.1547c-.7678,5.8328-6.9484,9.4014-6.9484,9.4014a16.5743,16.5743,0,0,1-8.6893,2.361l4.5152,2.6055.0738-.0444-.12-.5692a17.6032,17.6032,0,0,0,2.9566-1.0731l3.2749-1.8818A14.8763,14.8763,0,0,0,64.92,28.8553a11.52,11.52,0,0,0-.1361-1.28Z" style="fill: #fff"/>
      <path d="M42.1615,32.693c.1624.09.3019.1213.4544.2035L41.1114,30.291a12.3981,12.3981,0,0,1-3.416-5.8918l-.2476-.4413.0919-.1608a17.7857,17.7857,0,0,1-.51-3.6885,16.1931,16.1931,0,0,1,3.0027-9.71L34.3435,13.68v.0228l1.1732.3856c-1.7589,6.1708-.3232,14.5926,6.6448,18.6042" style="fill: #fff"/>
      <path d="M62.6394,15.2225a9.8536,9.8536,0,0,0-1.0927-.4741l2.75,4.7614a12.3147,12.3147,0,0,1,1.9017,3.2879l.671,1.16-.1724.3a18.1111,18.1111,0,0,1,.7057,4.4086,16.488,16.488,0,0,1-2.0838,8.2576l4.6481-2.6809v-.187l-.694-.2214c1.7523-6.1757.3135-14.5944-6.6334-18.6125" style="fill: #fff"/>
      <path d="M59.1512,11.8853H45.2L38.1959,23.9579,45.2,36.04H59.1512L66.116,23.9579ZM56.362,30.5568V22.8782l-1.5751,2.8483H47.9681v4.83h-4.84V17.36h4.84v4.8631h7.9213l.4726-.8958V17.36h4.8352V30.5568Z" style="fill: #fff"/>
    </g>
  </g>
</svg>
