<svg xmlns="http://www.w3.org/2000/svg" xmlns:xlink="http://www.w3.org/1999/xlink" width="940.7157" height="297.4961" viewBox="0 0 940.7157 297.4961">
  <defs>
    <pattern id="a" data-name="New Pattern Swatch 1" width="14.667" height="14.667" patternUnits="userSpaceOnUse" viewBox="0 0 14.667 14.667">
      <rect width="14.667" height="14.667" style="fill: none"/>
      <rect width="14.667" height="14.667" style="fill: #231f20"/>
    </pattern>
  </defs>
  <title>hurr-smsAsset 2</title>
  <g>
    <polygon points="128.82 0 0 74.374 0 223.122 128.82 297.496 257.639 223.122 257.639 74.374 128.82 0" style="fill: #ac782d"/>
    <polygon points="2 221.968 2 75.528 128.82 2.31 255.639 75.528 255.639 221.968 128.82 295.186 2 221.968" style="fill: #c4912c"/>
    <polygon points="18 212.729 18 84.767 128.82 20.784 239.639 84.767 239.639 212.729 128.82 276.712 18 212.729" style="fill: #bebdbc"/>
    <polygon points="20 211.575 20 85.921 128.82 23.094 237.639 85.921 237.639 211.575 128.82 274.402 20 211.575" style="fill: url(#a)"/>
    <path d="M199.39,81.6416s-67.377-38.9-101.3575,19.9492c0,0-15.7988,26.8575-3.27,50.4512-3.7812-1.8633-8.9062-5.1016-11.6719-9.8926-4.73-8.1933-13.3808-51.334,29.1231-75.875,42.5039-24.5371,91.4824-6.4258,118.7637,21.77L241.28,78.7412S178.8272,10.3076,103.6221,53.7256c0,0-67.3789,38.9-33.4024,97.752,0,0,18.834,33.2382,51.0411,27.3867l-.0606.082s-8.9785,8.2441-18.4394,8.2441-51.1485-14.0761-51.1485-63.1543c0-49.08,40.1758-82.4414,78.2363-91.9707l-2.9062-13.5722S36.4483,38.3623,36.4483,125.2c0,0,0,77.8027,67.955,77.8027,0,0,32.7325.2637,46.3516-24.1386a23.7125,23.7125,0,0,1-2.7715,10.5566c-4.73,8.1934-37.7637,37.2559-80.2676,12.7168S16.4072,126.126,27.1846,88.3994L13.9776,84.13s-28.0391,88.3047,47.164,131.7227c0,0,67.3789,38.9023,101.3574-19.9493,0,0,14.752-25.082,4.4336-48.06a23.9032,23.9032,0,0,1,7.9688,7.8144c4.73,8.1934,13.3828,51.334-29.1211,75.875-42.5039,24.5371-91.4824,6.4258-118.7656-21.7695l-10.3008,9.3027S79.167,287.499,154.37,244.0811c0,0,67.3789-38.9,33.4024-97.752,0,0-15.4844-27.3262-42.3809-28.0625A23.4064,23.4064,0,0,1,155.63,115.53c9.4609,0,51.1465,14.0762,51.1484,63.1562-.0019,49.0782-40.1757,82.4395-78.2363,91.9707l2.9063,13.5723S221.94,264.36,221.94,177.5225c0,0,.002-77.8028-67.955-77.8047,0,0-29.6543-.2383-44.2578,20.7812,0-3.875.5878-8.56,2.82-12.4257,4.73-8.1934,37.7636-37.2559,80.27-12.7168,42.5019,24.541,51.3066,76.0136,40.5293,113.7382l13.207,4.27S274.5928,125.0615,199.39,81.6416Z" style="fill: #ac782d"/>
    <polygon points="83.89 226.568 38.96 148.748 83.89 70.928 173.75 70.928 218.68 148.748 173.75 226.568 83.89 226.568" style="fill: #bebdbc"/>
    <polygon points="86.199 222.568 43.579 148.748 86.199 74.928 171.44 74.928 214.061 148.748 171.44 222.568 86.199 222.568" style="fill: #c4912c"/>
    <polygon points="154.469 108.416 154.469 132.635 151.548 138.145 103.169 138.145 103.169 108.416 73.623 108.416 73.623 189.082 103.169 189.082 103.169 159.535 144.862 159.535 154.469 142.133 154.469 189.082 184.017 189.082 184.017 108.416 154.469 108.416" style="fill: #231f20"/>
    <rect x="177.6815" y="114.083" width="0.0023" height="0.253"/>
    <g>
      <polygon points="334.418 97.952 300.826 97.952 300.826 78.448 281.422 78.448 281.422 131.376 300.826 131.376 300.826 111.971 328.059 111.971 334.418 100.597 334.418 131.376 353.922 131.376 353.922 78.448 334.418 78.448 334.418 97.952" style="fill: #231f20"/>
      <path d="M412.0366,112.7761c0,2.8433-2.3747,4.2484-7.0271,4.2484H387.5781c-4.8166,0-7.1907-1.4051-7.1907-4.2484V78.3831H361.0479v37.7713c0,10.1373,6.122,15.1562,18.435,15.1562h33.6256c12.1757,0,18.1981-5.0189,18.1981-15.1562V78.3831h-19.27Z" style="fill: #231f20"/>
      <path d="M511.0354,103.8414v-10.47a34.27,34.27,0,0,0-.6715-6.66,8.9038,8.9038,0,0,0-2.7093-4.6142,12.1071,12.1071,0,0,0-5.42-2.8471,40.71,40.71,0,0,0-9.2672-.867H438.6006v52.9275h19.4046V117.0245H469.081l20.7407,14.2861h24.6258l-18.87-14.2861c10.2369-.6033,15.4581-4.92,15.4581-13.1831m-19.3739-5.4849c0,2.9768-2.5069,4.5835-7.1913,4.5835H464.1617l-6.1565,13.2144v-23.92H484.47c4.6844,0,7.1913,1.504,7.1913,4.4808Z" style="fill: #231f20"/>
      <path d="M590.8288,103.8414v-10.47a22.4313,22.4313,0,0,0-.6715-6.66,10.4637,10.4637,0,0,0-7.8935-7.4613,41.5,41.5,0,0,0-9.4352-.867H518.36v52.9275h19.5387V117.0245h11.21l20.774,14.2861h24.6252l-19.072-14.2861c10.2056-.6033,15.393-4.92,15.393-13.1831m-19.34-5.4849c0,2.9768-2.3735,4.5835-7.1606,4.5835H544.0233l-6.1251,13.2144v-23.92h26.4305c4.7871,0,7.1606,1.504,7.1606,4.4808Z" style="fill: #231f20"/>
      <rect x="598.3552" y="78.3831" width="19.5042" height="52.8247" style="fill: #231f20"/>
      <path d="M624.9543,89.6236V119.7c0,7.6949,4.1494,11.6107,12.5459,11.6107h58.0453V117.0245H644.3589v-24.79h51.1866V78.3831H637.5c-8.3965,0-12.5459,3.7141-12.5459,11.24" style="fill: #231f20"/>
      <path d="M731.3774,78.3831l-30.58,52.9275h49.08l5.2864-12.2785,7.7288,12.2785h19.84L752.1219,78.3831Zm-2.24,38.6414,12.8128-20.24,12.244,20.24Z" style="fill: #231f20"/>
      <path d="M843.7928,112.7761c0,2.1411-1.2058,3.5117-4.1832,4.0805-2.2407-.4354-3.7479-1.2372-4.2171-2.9774V93.3715c0-10.0722-6.0881-14.9884-18.4662-14.9884H806.4194c-12.1758,0-18.2984,4.9162-18.2984,14.9884v37.9391h19.4059V96.7153c0-2.2063,1.4389-3.5117,4.1137-4.0154,2.4424.4354,3.7785,1.4051,4.2139,2.9774v20.4771c0,10.1373,6.0224,15.1562,18.5339,15.1562h10.4393c12.0454,0,18.3359-5.0189,18.3359-15.1562V78.3831H843.7928Z" style="fill: #231f20"/>
      <path d="M870.3543,89.6236V119.7c0,7.6949,4.1838,11.6107,12.7144,11.6107h57.647V117.0245h-50.923V111.67h41.1865l6.122-14.0155H894.7465l-4.9538,11.24v-16.66h50.923V78.3831h-57.647c-8.5306,0-12.7144,3.7141-12.7144,11.24" style="fill: #231f20"/>
      <g>
        <path d="M351.8759,171.3752v15.2326h-45.58c-1.9031,0-3.0776.1654-3.5117.4773a1.6455,1.6455,0,0,0-.6546,1.4314v.2387a1.2383,1.2383,0,0,0,.5324,1.0091c.3609.2813,1.5661.416,3.6339.416h26.7757a31.6564,31.6564,0,0,1,8.87,1.0705,15.5168,15.5168,0,0,1,5.8295,2.9793,10.6659,10.6659,0,0,1,3.1571,4.6367,18.1655,18.1655,0,0,1,.9478,5.9523v4.1663q0,8.0931-4.6368,11.7266-4.6436,3.6251-14.2842,3.6276H281.4225V208.8689h46.5348a6.05,6.05,0,0,0,2.5571-.3608,1.36,1.36,0,0,0,.6546-1.3092v-.1166a1.6858,1.6858,0,0,0-.416-1.0091c-.2819-.3608-1.2115-.5381-2.7957-.5381h-27.73q-9.2865,0-14.0456-4.1663-4.762-4.1655-4.7589-11.305V186.73a21.1032,21.1032,0,0,1,.887-6.3068,11.2046,11.2046,0,0,1,3.04-4.8817,14.046,14.046,0,0,1,5.7687-3.0958,33.2127,33.2127,0,0,1,9.2253-1.07Z" style="fill: #231f20"/>
        <path d="M434.0021,189.4643v19.5211a15.549,15.549,0,0,1-2.38,8.8087,10.3119,10.3119,0,0,1-3.9277,3.5725,19.8121,19.8121,0,0,1-5.3584,2.2576h.1222a8.44,8.44,0,0,1-1.4314.2387c-.71.0789-1.45.1585-2.2025.238s-1.7615.1591-3.0343.2387H404.6017q-2.4957,0-4.82-.1773a19.0447,19.0447,0,0,1-4.3436-.8319,15.263,15.263,0,0,1-3.8663-1.9087,14.55,14.55,0,0,1-3.5111-3.5111,13.83,13.83,0,0,1-2.5019-7.3779V189.3484q-.4773-1.67-3.2117-2.2633-3.2117.5958-3.2116,2.9787V224.34H358.189V186.73q0-15.3518,19.0375-15.3548h10.3566q19.0407,0,19.0438,15.3548v19.637c.3971,1.1131,1.5046,1.8654,3.3338,2.2632a3.0988,3.0988,0,0,0,2.973-2.2632V186.73q0-15.3518,19.0431-15.3548h10.2345q19.05,0,19.0438,15.3548v37.61H440.431V190.0638q0-2.3858-3.3338-2.9787C435.2681,187.4823,434.2407,188.2778,434.0021,189.4643Z" style="fill: #231f20"/>
        <path d="M538.0216,171.3752v15.2326h-45.58c-1.9024,0-3.077.1654-3.5117.4773a1.6455,1.6455,0,0,0-.6546,1.4314v.2387a1.24,1.24,0,0,0,.5324,1.0091c.3609.2813,1.5661.416,3.6339.416h26.7757a31.6564,31.6564,0,0,1,8.87,1.0705,15.5243,15.5243,0,0,1,5.83,2.9793,10.67,10.67,0,0,1,3.1565,4.6367,18.15,18.15,0,0,1,.9478,5.9523v4.1663q0,8.0931-4.6368,11.7266-4.6427,3.6251-14.2842,3.6276H467.5681V208.8689H514.103a6.05,6.05,0,0,0,2.5571-.3608,1.36,1.36,0,0,0,.6546-1.3092v-.1166a1.6858,1.6858,0,0,0-.416-1.0091c-.2819-.3608-1.2115-.5381-2.7957-.5381h-27.73q-9.2864,0-14.0455-4.1663-4.762-4.1655-4.759-11.305V186.73a21.1032,21.1032,0,0,1,.8871-6.3068,11.2046,11.2046,0,0,1,3.04-4.8817,14.05,14.05,0,0,1,5.7687-3.0958,33.2127,33.2127,0,0,1,9.2253-1.07Z" style="fill: #231f20"/>
      </g>
    </g>
  </g>
</svg>
