<svg xmlns="http://www.w3.org/2000/svg" width="179.8859" height="63.9326" viewBox="0 0 179.8859 63.9326">
  <title>lapainAsset 13</title>
  <g>
    <g>
      <path d="M10.5646,13.8037H8.6769L3.6437,7.1094,2.1993,8.3936v5.41H.5939V0H2.1993V6.8447L8.4591,0h1.8985L4.8048,5.9951Z" style="fill: #fff"/>
      <path d="M20.1574,13.8037H12.462V0h7.6954V1.4258h-6.09V5.8721h5.7217v1.417H14.0675v5.0791h6.09Z" style="fill: #fff"/>
      <path d="M34,13.8037h-1.832L24.6242,2.2188H24.549q.1508,2.039.15,3.7392v7.8457H23.2169V0H25.03l7.5244,11.5381h.0762q-.0191-.2549-.085-1.6387t-.0478-1.9775V0H34Z" style="fill: #fff"/>
    </g>
    <g>
      <path d="M.0636,48.7412V18.9658H8.005V43.5273h15.19v5.2139Z" style="fill: #fff"/>
      <path d="M51.1574,48.7412l-2.7149-7.0879H34.7892l-2.7149,7.0879H23.5187L36.7365,18.8438h9.708L59.713,48.7412Zm-4.61-12.3828q-3.766-9.6329-4.2393-10.8955t-.6787-1.9961q-.8451,2.6075-4.8418,12.8916Z" style="fill: #fff"/>
      <path d="M88.8292,28.2529a8.3246,8.3246,0,0,1-3.7783,7.3526Q81.2717,38.1513,74.3048,38.15H70.8986V48.7412H62.9572V18.9658H74.92q6.8128,0,10.3613,2.3321A7.775,7.775,0,0,1,88.8292,28.2529ZM70.8986,32.9775h2.6123a10.4085,10.4085,0,0,0,5.4814-1.15,3.7233,3.7233,0,0,0,1.8194-3.3505,3.718,3.718,0,0,0-1.5245-3.2784A8.4976,8.4976,0,0,0,74.51,24.1387H70.8986Z" style="fill: #fff"/>
      <path d="M117.3546,48.7412,114.64,41.6533H100.9865l-2.7149,7.0879H89.716l13.2177-29.8974h9.708L125.91,48.7412Zm-4.61-12.3828q-3.7662-9.6329-4.2393-10.8955t-.6787-1.9961q-.8453,2.6075-4.8418,12.8916Z" style="fill: #fff"/>
      <path d="M129.1544,48.7412V18.9658h7.9414V48.7412Z" style="fill: #fff"/>
      <path d="M178.2765,48.7412H168.1837l-16.291-22.5254h-.23q.4864,5.9677.4864,8.5137V48.7412h-7.0957V18.9658h10.0156l16.2656,22.3008h.18q-.3838-5.8036-.3848-8.207V18.9658h7.1475Z" style="fill: #fff"/>
    </g>
    <g>
      <path d="M97.99,61.0654a2.8239,2.8239,0,0,1,.5-1.6523,5.4008,5.4008,0,0,1,1.7929-1.4512,8.5779,8.5779,0,0,1-.83-1.0351,3.5,3.5,0,0,1-.3487-.7334,2.4458,2.4458,0,0,1-.1289-.79,2.0949,2.0949,0,0,1,.7041-1.6816,2.9183,2.9183,0,0,1,1.961-.6035,2.6424,2.6424,0,0,1,1.833.6006,2.1277,2.1277,0,0,1,.6679,1.67,2.3176,2.3176,0,0,1-.4882,1.42,5.5529,5.5529,0,0,1-1.6172,1.3184l2.9248,2.81a3.4536,3.4536,0,0,0,.6425-1.0459,8.8828,8.8828,0,0,0,.4063-1.3115h1.207a6.8626,6.8626,0,0,1-1.4726,3.1191l2.1484,2.0909h-1.6455L104.9181,62.51a5.0957,5.0957,0,0,1-3.68,1.4228,3.4744,3.4744,0,0,1-2.3965-.7617A2.68,2.68,0,0,1,97.99,61.0654Zm3.2773,1.7969a3.9662,3.9662,0,0,0,2.874-1.1064l-3.14-3.0469a6.88,6.88,0,0,0-1.1289.8086,2.143,2.143,0,0,0-.4883.6855,2.0856,2.0856,0,0,0-.1582.834,1.689,1.689,0,0,0,.5566,1.333A2.16,2.16,0,0,0,101.2677,62.8623Zm-1.1142-7.4873a1.8692,1.8692,0,0,0,.2587.9443,5.7368,5.7368,0,0,0,.8838,1.0821,4.6747,4.6747,0,0,0,1.29-.9961,1.6388,1.6388,0,0,0,.3632-1.0518,1.1858,1.1858,0,0,0-.37-.9023,1.383,1.383,0,0,0-.9882-.3487,1.531,1.531,0,0,0-1.0381.3448A1.1627,1.1627,0,0,0,100.1535,55.375Z" style="fill: #fff"/>
      <path d="M119.1163,60.9941a2.5744,2.5744,0,0,1-1.0058,2.1621,4.36,4.36,0,0,1-2.7305.7764,6.8345,6.8345,0,0,1-2.874-.4814V62.2725a7.5212,7.5212,0,0,0,1.4082.4316,7.4015,7.4015,0,0,0,1.5088.1582,3.0414,3.0414,0,0,0,1.84-.4639,1.52,1.52,0,0,0,.6182-1.29,1.6546,1.6546,0,0,0-.22-.8945,2.0233,2.0233,0,0,0-.7325-.6426,10.35,10.35,0,0,0-1.5625-.669,4.9807,4.9807,0,0,1-2.0947-1.2431,2.7384,2.7384,0,0,1-.6289-1.875,2.3307,2.3307,0,0,1,.9121-1.9326,3.79,3.79,0,0,1,2.4151-.7188,7.1185,7.1185,0,0,1,2.8808.5742l-.3808,1.0645a6.509,6.509,0,0,0-2.5293-.5469,2.4487,2.4487,0,0,0-1.5157.417,1.3752,1.3752,0,0,0-.5468,1.1572,1.7763,1.7763,0,0,0,.2011.8946,1.8983,1.8983,0,0,0,.68.64,8.4558,8.4558,0,0,0,1.4619.6426,5.7985,5.7985,0,0,1,2.2744,1.2646A2.49,2.49,0,0,1,119.1163,60.9941Z" style="fill: #fff"/>
      <path d="M130.3849,58.5215a5.783,5.783,0,0,1-1.2764,3.9668,4.4826,4.4826,0,0,1-3.5459,1.4443,4.5407,4.5407,0,0,1-3.582-1.4189,5.83,5.83,0,0,1-1.2607-4.0059,5.7561,5.7561,0,0,1,1.2646-3.9775,4.5726,4.5726,0,0,1,3.5928-1.4121,4.475,4.475,0,0,1,3.5351,1.4375A5.7778,5.7778,0,0,1,130.3849,58.5215Zm-8.3721,0a4.9842,4.9842,0,0,0,.9092,3.2373,3.7123,3.7123,0,0,0,5.2783.0039,5.0587,5.0587,0,0,0,.8907-3.2412,5.0119,5.0119,0,0,0-.8877-3.2149,3.18,3.18,0,0,0-2.626-1.0957,3.2428,3.2428,0,0,0-2.6553,1.1026A4.9318,4.9318,0,0,0,122.0128,58.5215Z" style="fill: #fff"/>
      <path d="M140.9327,63.7891h-1.3935l-5.7422-8.8164h-.0576q.1157,1.5511.1152,2.8447v5.9717h-1.1279V53.2832h1.38l5.7265,8.7813h.0577q-.0147-.1935-.0645-1.2471-.0513-1.0518-.0361-1.5049V53.2832h1.1425Z" style="fill: #fff"/>
      <path d="M149.7492,60.9941a2.5745,2.5745,0,0,1-1.0059,2.1621,4.36,4.36,0,0,1-2.7305.7764,6.8345,6.8345,0,0,1-2.874-.4814V62.2725a7.5212,7.5212,0,0,0,1.4082.4316,7.4015,7.4015,0,0,0,1.5088.1582,3.0414,3.0414,0,0,0,1.84-.4639,1.52,1.52,0,0,0,.6182-1.29,1.6537,1.6537,0,0,0-.22-.8945,2.0237,2.0237,0,0,0-.7324-.6426,10.3594,10.3594,0,0,0-1.5625-.669,4.98,4.98,0,0,1-2.0948-1.2431,2.7384,2.7384,0,0,1-.6289-1.875,2.3307,2.3307,0,0,1,.9121-1.9326,3.79,3.79,0,0,1,2.4151-.7188,7.1181,7.1181,0,0,1,2.8808.5742l-.3808,1.0645a6.509,6.509,0,0,0-2.5293-.5469,2.4487,2.4487,0,0,0-1.5157.417,1.3752,1.3752,0,0,0-.5468,1.1572,1.7774,1.7774,0,0,0,.2011.8946,1.8983,1.8983,0,0,0,.68.64,8.4558,8.4558,0,0,0,1.4619.6426,5.8,5.8,0,0,1,2.2745,1.2646A2.49,2.49,0,0,1,149.7492,60.9941Z" style="fill: #fff"/>
      <path d="M155.7208,63.7891V53.2832h1.2217v9.3994h4.6348v1.1065Z" style="fill: #fff"/>
      <path d="M166.5929,63.7891h-1.2217V54.3682h-3.3271v-1.085h7.876v1.085h-3.3272Z" style="fill: #fff"/>
      <path d="M179.8859,58.4355a5.3035,5.3035,0,0,1-1.4121,3.9776,5.5884,5.5884,0,0,1-4.0635,1.376H171.5V53.2832h3.2188a4.7167,4.7167,0,0,1,5.167,5.1523Zm-1.293.043a4.2322,4.2322,0,0,0-1.0312-3.0967,4.1346,4.1346,0,0,0-3.0655-1.042h-1.7744v8.3926h1.4873a4.5218,4.5218,0,0,0,3.2842-1.0742A4.254,4.254,0,0,0,178.5929,58.4785Z" style="fill: #fff"/>
    </g>
    <rect y="56.8582" width="91.6293" height="3.6548" style="fill: #fff"/>
  </g>
</svg>
